<svg width="168" height="152" viewBox="0 0 168 152" fill="none" xmlns="http://www.w3.org/2000/svg">
<g filter="url(#filter0_d_920_41)">
<rect x="6" y="2.21826" width="160" height="142.857" rx="6.09091" fill="url(#paint0_linear_920_41)"/>
</g>
<path d="M98.0281 32.4703C91.7104 51.712 107.256 69.5143 126.871 65.9956C126.92 66.5821 127.008 67.1596 127.008 67.7328C127.004 80.6924 127.066 93.652 126.906 106.607C126.88 108.646 126.164 110.859 125.169 112.663C123.61 115.488 120.917 116.879 117.599 116.879C96.4154 116.875 75.2321 116.897 54.0488 116.866C48.1266 116.857 43.5727 112.383 43.5594 106.478C43.5105 85.0019 43.5239 63.5299 43.5505 42.0534C43.5594 37.0686 46.9137 33.3144 51.8452 32.6302C52.9381 32.4792 54.0622 32.4703 55.1684 32.4703C68.5724 32.4614 81.9807 32.4658 95.3846 32.4658C96.1977 32.4703 97.0063 32.4703 98.0281 32.4703ZM53.7201 103.226C55.004 103.373 55.8304 103.533 56.6612 103.542C58.1407 103.559 59.6201 103.448 61.0996 103.448C78.7908 103.475 96.482 103.524 114.173 103.542C117.452 103.546 117.936 102.724 116.364 99.8986C110.69 89.6802 105.003 79.4751 99.2987 69.2744C97.6327 66.2977 96.713 66.2755 94.9048 69.1456C92.0303 73.7128 89.2225 78.3288 86.3036 82.8694C83.4646 87.2811 81.2343 87.4988 77.4491 83.8912C73.495 80.1193 70.4294 80.377 67.1995 84.8242C63.632 89.729 60.1177 94.6783 56.5635 99.5921C55.7549 100.703 54.8708 101.756 53.7201 103.226ZM68.3902 44.919C62.3302 44.9679 57.412 49.9616 57.4565 56.0215C57.5053 62.1259 62.4057 67.0663 68.448 67.0974C74.5524 67.1285 79.5594 62.0282 79.4927 55.8572C79.4261 49.775 74.4457 44.8701 68.3902 44.919Z" fill="white"/>
<path d="M121.81 20.9824C110.45 20.8846 101.275 29.9079 101.2 41.246C101.129 52.6195 110.157 61.7628 121.499 61.8028C132.841 61.8428 141.98 52.7839 142.034 41.4414C142.087 30.2634 133.01 21.0801 121.81 20.9824ZM129.936 42.4322C128.057 40.3352 126.315 38.3937 124.138 35.9679V54.6943C124.138 54.7698 124.125 54.8365 124.111 54.9076C124.111 54.952 124.111 54.9964 124.111 55.0453C124.089 55.0542 124.071 55.0631 124.054 55.0764C123.911 55.3785 123.609 55.5873 123.254 55.5873H120.117C119.629 55.5873 119.229 55.1874 119.229 54.6987V35.648C116.785 38.0249 114.737 40.0153 112.516 42.1745C111.583 41.0816 110.747 40.1042 109.997 39.22C113.991 35.226 117.834 31.3785 121.606 27.6021C125.373 31.3518 129.243 35.1993 133.308 39.2511C132.295 40.2019 131.349 41.0905 129.936 42.4322Z" fill="white"/>
<defs>
<filter id="filter0_d_920_41" x="0" y="0.218262" width="168" height="150.857" filterUnits="userSpaceOnUse" color-interpolation-filters="sRGB">
<feFlood flood-opacity="0" result="BackgroundImageFix"/>
<feColorMatrix in="SourceAlpha" type="matrix" values="0 0 0 0 0 0 0 0 0 0 0 0 0 0 0 0 0 0 127 0" result="hardAlpha"/>
<feOffset dx="-2" dy="2"/>
<feGaussianBlur stdDeviation="2"/>
<feComposite in2="hardAlpha" operator="out"/>
<feColorMatrix type="matrix" values="0 0 0 0 0 0 0 0 0 0 0 0 0 0 0 0 0 0 0.09 0"/>
<feBlend mode="normal" in2="BackgroundImageFix" result="effect1_dropShadow_920_41"/>
<feBlend mode="normal" in="SourceGraphic" in2="effect1_dropShadow_920_41" result="shape"/>
</filter>
<linearGradient id="paint0_linear_920_41" x1="86" y1="2.21826" x2="86" y2="145.075" gradientUnits="userSpaceOnUse">
<stop stop-color="#2488E4"/>
<stop offset="1" stop-color="#5C3EE1"/>
</linearGradient>
</defs>
</svg>
