<svg width="168" height="151" viewBox="0 0 168 151" fill="none" xmlns="http://www.w3.org/2000/svg">
<g filter="url(#filter0_d_920_6)">
<rect x="6" y="2" width="160" height="142.857" rx="6.09091" fill="url(#paint0_linear_920_6)"/>
</g>
<path d="M63.6158 81.8938C63.6158 77.0654 63.6158 72.3737 63.6158 67.5692C63.2294 67.5692 62.879 67.5692 62.5287 67.5692C56.9298 67.5692 51.331 67.5692 45.7322 67.5692C43.8603 67.5692 43.5291 67.238 43.5291 65.3829C43.5291 59.0953 43.5291 52.8102 43.5291 46.5226C43.5291 44.9531 43.9635 44.5259 45.5666 44.5259C51.2254 44.5259 56.8842 44.5259 62.5431 44.5259C62.8694 44.5259 63.1958 44.5259 63.6542 44.5259C63.6542 43.0908 63.6494 41.6965 63.6542 40.3022C63.671 36.7888 65.1445 34.017 67.9787 31.9771C69.649 30.7748 71.5497 30.1653 73.6039 30.1629C83.2441 30.1461 92.8843 30.1317 102.527 30.1653C108.094 30.1845 112.508 34.6794 112.522 40.2566C112.534 44.9267 112.527 49.5968 112.532 54.2669C112.532 54.3245 112.551 54.3844 112.585 54.5884C112.87 54.5884 113.185 54.5884 113.496 54.5884C117.389 54.5884 121.282 54.5836 125.174 54.5908C129.539 54.598 132.645 57.6914 132.65 62.0376C132.652 66.7076 132.654 71.3777 132.65 76.0478C132.645 80.07 129.787 83.197 125.784 83.3242C121.745 83.4513 117.701 83.3722 113.66 83.3841C113.309 83.3841 112.959 83.3841 112.527 83.3841C112.527 83.8449 112.527 84.1977 112.527 84.5505C112.527 92.7219 112.532 100.896 112.525 109.067C112.522 114.191 109.141 118.261 104.108 119.171C103.379 119.303 102.618 119.307 101.872 119.307C92.6803 119.317 83.4889 119.257 74.2975 119.334C68.4467 119.382 64.7989 115.492 63.9518 111.623C63.6878 110.414 63.6662 109.154 63.5222 107.815C63.2078 107.815 62.855 107.815 62.5023 107.815C57.741 107.815 52.9821 107.827 48.2208 107.81C45.821 107.8 44.2155 106.636 43.6611 104.548C43.5627 104.179 43.5363 103.783 43.5339 103.399C43.5267 97.7112 43.5243 92.0236 43.5291 86.336C43.5315 83.7897 45.3866 81.9106 47.9352 81.9034C52.8165 81.889 57.6954 81.8986 62.5767 81.8986C62.9006 81.8938 63.2222 81.8938 63.6158 81.8938ZM66.5556 81.8962C68.9794 81.8962 71.3121 81.8818 73.6447 81.901C76.1478 81.9202 78.0076 83.7897 78.0244 86.276C78.0292 87.1447 78.058 88.0134 78.0124 88.8798C77.9836 89.4341 78.1588 89.7389 78.6772 89.9789C80.0571 90.6197 81.4106 91.3204 82.7737 92.002C83.3737 92.302 83.9184 92.7507 83.7361 93.4443C83.6041 93.953 83.2153 94.5218 82.7737 94.7954C81.7106 95.453 80.5899 96.0577 79.4187 96.4849C78.178 96.9384 77.7965 97.7088 78.0412 98.9159C78.0532 98.9687 78.0916 99.0167 78.1276 99.0863C88.6101 99.0863 99.0998 99.0863 109.59 99.0863C109.616 98.9423 109.642 98.8583 109.642 98.7719C109.645 93.8019 109.64 88.8318 109.657 83.8617C109.659 83.3913 109.508 83.2234 109.045 83.077C105.848 82.0642 103.902 79.398 103.9 76.0958C103.895 71.3057 103.902 66.5157 103.897 61.7256C103.895 60.1753 104.384 58.7954 105.284 57.5474C106.364 56.0499 107.864 55.1884 109.592 54.7228C109.592 50.3791 109.592 46.081 109.592 41.7757C95.2145 41.7757 80.8922 41.7757 66.594 41.7757C66.594 42.7332 66.594 43.614 66.594 44.5283C68.9074 44.5283 71.1513 44.5211 73.3975 44.5307C74.6239 44.5355 75.147 45.0587 75.1494 46.2706C75.1518 52.7982 75.1542 59.3233 75.1494 65.8509C75.1494 67.0388 74.6695 67.5452 73.4647 67.562C71.4897 67.5884 69.5122 67.5716 67.5371 67.5716C67.2179 67.5716 66.8988 67.5716 66.558 67.5716C66.5556 72.3905 66.5556 77.0822 66.5556 81.8962ZM109.498 102.132C99.0494 102.132 88.5645 102.132 78.0244 102.132C78.0244 102.585 78.0268 102.972 78.0244 103.358C78.0148 105.871 76.3445 107.666 73.8199 107.783C72.356 107.851 70.8873 107.81 69.421 107.815C68.4731 107.817 67.5227 107.815 66.5244 107.815C66.5244 108.326 66.5196 108.712 66.5244 109.101C66.5916 113.296 69.6898 116.382 73.8919 116.387C83.4697 116.399 93.045 116.404 102.623 116.38C106.031 116.37 109.119 113.824 109.443 110.447C109.707 107.721 109.498 104.954 109.498 102.132ZM79.0492 93.4251C78.0412 92.9115 77.1581 92.4292 76.2438 92.0068C75.4734 91.6516 75.1086 91.1212 75.1398 90.2525C75.183 89.0574 75.1566 87.8574 75.1494 86.6623C75.1398 85.3376 74.6359 84.8216 73.2943 84.8192C64.9429 84.8121 56.5914 84.8121 48.2424 84.8192C46.9081 84.8192 46.4041 85.34 46.4017 86.6767C46.3969 92.1244 46.3969 97.5696 46.4017 103.017C46.4017 104.407 46.8961 104.889 48.3 104.889C56.6202 104.892 64.9429 104.892 73.2631 104.889C74.6551 104.889 75.1446 104.4 75.1494 103.003C75.1566 100.908 75.1878 98.8127 75.135 96.7177C75.1086 95.7385 75.4854 95.153 76.3637 94.769C77.2325 94.3898 78.0628 93.9242 79.0492 93.4251ZM118.251 80.4563C120.586 80.4563 122.918 80.4635 125.253 80.4539C127.924 80.4419 129.758 78.6277 129.77 75.9422C129.789 71.3057 129.789 66.6668 129.77 62.0303C129.76 59.3809 127.984 57.5402 125.342 57.5186C120.614 57.4802 115.887 57.4755 111.159 57.521C108.56 57.5474 106.791 59.3857 106.779 61.9848C106.758 66.6524 106.758 71.3201 106.779 75.9878C106.791 78.6205 108.632 80.4395 111.248 80.4539C113.583 80.4659 115.918 80.4563 118.251 80.4563ZM72.236 49.0832C72.0104 49.244 71.888 49.3208 71.7776 49.4096C68.1107 52.3422 64.4461 55.2748 60.7792 58.2098C59.5481 59.1961 59.1257 59.1937 57.8826 58.1978C54.2636 55.3012 50.6446 52.4046 47.0233 49.5104C46.8577 49.3784 46.6681 49.2728 46.4449 49.1264C46.4449 54.3437 46.4449 59.4505 46.4449 64.5958C55.0579 64.5958 63.6278 64.5958 72.236 64.5958C72.236 59.4433 72.236 54.3365 72.236 49.0832ZM66.7596 38.7135C81.0074 38.7135 95.2049 38.7135 109.417 38.7135C108.675 35.3561 105.949 33.1075 102.412 33.0907C92.8603 33.0475 83.3089 33.0475 73.7599 33.0907C70.2273 33.1075 67.4939 35.3633 66.7596 38.7135ZM49.3559 47.5017C49.4903 47.6721 49.5431 47.7729 49.6247 47.8401C52.7229 50.3287 55.8307 52.8054 58.9193 55.306C59.3585 55.6612 59.6032 55.4164 59.9152 55.1668C62.6198 52.9973 65.3293 50.8327 68.0339 48.6656C68.4587 48.3248 68.8714 47.9697 69.4306 47.5017C62.627 47.5017 56.0443 47.5017 49.3559 47.5017Z" fill="white"/>
<path d="M88.0819 113.541C85.6605 113.539 83.7766 111.648 83.7766 109.224C83.779 106.836 85.7181 104.89 88.0915 104.892C90.4674 104.894 92.3992 106.843 92.3968 109.236C92.3992 111.652 90.501 113.546 88.0819 113.541ZM89.5146 109.274C89.5434 108.533 88.8643 107.841 88.1011 107.834C87.374 107.827 86.7116 108.434 86.6636 109.156C86.6132 109.9 87.2636 110.604 88.0291 110.635C88.8019 110.666 89.4858 110.037 89.5146 109.274Z" fill="white"/>
<path d="M72.2363 87.7113C72.2363 88.6688 72.2363 89.5568 72.2363 90.5023C64.6048 90.5023 57.0117 90.5023 49.349 90.5023C49.349 89.6048 49.349 88.6928 49.349 87.7113C56.9373 87.7113 64.5496 87.7113 72.2363 87.7113Z" fill="white"/>
<path d="M49.3158 101.981C49.3158 101.021 49.3158 100.133 49.3158 99.1921C56.9473 99.1921 64.5404 99.1921 72.2031 99.1921C72.2031 100.087 72.2031 100.997 72.2031 101.981C64.6124 101.981 57.0001 101.981 49.3158 101.981Z" fill="white"/>
<path d="M52.1931 96.233C52.1931 95.2706 52.1931 94.3827 52.1931 93.4443C57.9071 93.4443 63.5828 93.4443 69.3304 93.4443C69.3304 94.3395 69.3304 95.249 69.3304 96.233C63.6524 96.233 57.9575 96.233 52.1931 96.233Z" fill="white"/>
<path d="M118.26 77.61C114.231 77.6004 111.075 74.4015 111.09 70.3409C111.104 66.4028 114.37 63.1894 118.335 63.2134C122.285 63.2374 125.467 66.4748 125.46 70.4633C125.455 74.4351 122.249 77.6172 118.26 77.61ZM118.232 74.7038C120.619 74.7182 122.602 72.7552 122.582 70.4009C122.563 68.0635 120.615 66.1364 118.272 66.1364C115.933 66.1364 113.984 68.0683 113.967 70.4033C113.95 72.724 115.901 74.6918 118.232 74.7038Z" fill="white"/>
<path d="M124.086 60.3772C125.034 60.3772 125.92 60.3772 126.851 60.3772C126.851 61.3323 126.851 62.2419 126.851 63.1994C125.92 63.1994 125.034 63.1994 124.086 63.1994C124.086 62.2803 124.086 61.3683 124.086 60.3772Z" fill="white"/>
<defs>
<filter id="filter0_d_920_6" x="0" y="0" width="168" height="150.857" filterUnits="userSpaceOnUse" color-interpolation-filters="sRGB">
<feFlood flood-opacity="0" result="BackgroundImageFix"/>
<feColorMatrix in="SourceAlpha" type="matrix" values="0 0 0 0 0 0 0 0 0 0 0 0 0 0 0 0 0 0 127 0" result="hardAlpha"/>
<feOffset dx="-2" dy="2"/>
<feGaussianBlur stdDeviation="2"/>
<feComposite in2="hardAlpha" operator="out"/>
<feColorMatrix type="matrix" values="0 0 0 0 0 0 0 0 0 0 0 0 0 0 0 0 0 0 0.09 0"/>
<feBlend mode="normal" in2="BackgroundImageFix" result="effect1_dropShadow_920_6"/>
<feBlend mode="normal" in="SourceGraphic" in2="effect1_dropShadow_920_6" result="shape"/>
</filter>
<linearGradient id="paint0_linear_920_6" x1="86" y1="2" x2="86" y2="144.857" gradientUnits="userSpaceOnUse">
<stop stop-color="#2488E4"/>
<stop offset="1" stop-color="#5C3EE1"/>
</linearGradient>
</defs>
</svg>
