<svg width="600" height="582" viewBox="0 0 600 582" fill="none" xmlns="http://www.w3.org/2000/svg">
<path d="M107.914 462.26C118.534 458.802 127.599 451.011 132.125 440.146C136.106 430.594 136.01 420.1 131.866 410.613C127.722 401.127 120.033 393.773 110.204 389.905L72.7829 375.198L65.7758 392.024L103.211 406.731C108.418 408.772 112.494 412.667 114.689 417.702C116.884 422.723 116.925 428.288 114.826 433.349C110.477 443.803 98.1939 448.864 87.4379 444.638L50.0167 429.931L43.0096 446.758L80.4308 461.465C89.5509 465.042 99.2436 465.082 107.914 462.26Z" fill="#A060FC"/>
<g opacity="0.3">
<path d="M107.914 462.26C118.534 458.802 127.599 451.011 132.125 440.146C136.106 430.594 136.01 420.1 131.866 410.613C127.722 401.127 120.033 393.773 110.204 389.905L72.7829 375.198L65.7758 392.024L103.211 406.731C108.418 408.772 112.494 412.667 114.689 417.702C116.884 422.723 116.925 428.288 114.826 433.349C110.477 443.803 98.1939 448.864 87.4379 444.638L50.0167 429.931L43.0096 446.758L80.4308 461.465C89.5509 465.042 99.2436 465.082 107.914 462.26Z" fill="black"/>
</g>
<path d="M72.5007 375.137L65.668 392.285L81.5076 398.247L88.3403 381.098L72.5007 375.137Z" fill="#C1BFBF"/>
<path d="M65.9531 436.198L59.0141 453.144L43.0096 446.758L50.0031 429.931L65.9531 436.198Z" fill="#C1BFBF"/>
<path d="M110.64 455.409C121.26 451.951 130.326 444.161 134.852 433.296C138.832 423.743 138.737 413.25 134.593 403.763C130.448 394.277 122.76 386.923 112.931 383.054L75.5094 368.347L68.5023 385.174L105.923 399.881C111.131 401.921 115.207 405.83 117.402 410.852C119.597 415.873 119.638 421.438 117.538 426.499C113.19 436.953 100.907 442.014 90.1506 437.788L52.7295 423.081L45.7224 439.908L83.1572 454.614C92.2773 458.179 101.984 458.232 110.64 455.409Z" fill="#A060FC"/>
<path d="M90.9958 374.442L84.2477 391.362L68.4068 385.399L75.2503 368.255L90.9958 374.442Z" fill="#E0E0E0"/>
<path d="M68.6794 429.335L61.754 446.281L45.7359 439.895L52.743 423.068L68.6794 429.335Z" fill="#E0E0E0"/>
<path opacity="0.3" d="M101.929 378.298L104.574 456.88C104.574 456.88 98.4529 458.311 93.9405 457.172L92.6318 375.078L101.929 378.298Z" fill="white"/>
<path opacity="0.3" d="M106.074 380.365L108.827 455.953L114.607 453.449L110.422 382.008L106.074 380.365Z" fill="white"/>
<path d="M59.7909 416.681L42.1369 403.644C41.9733 403.525 41.7415 403.604 41.687 403.803L40.4873 408.612C40.4464 408.758 40.3101 408.851 40.1601 408.824L26.4459 406.214C26.1323 406.161 25.9687 406.559 26.2414 406.718L44.5771 417.609C44.7407 417.702 44.9451 417.622 44.9997 417.45L46.2539 413.568C46.2948 413.422 46.4583 413.343 46.6083 413.382L59.5455 417.158C59.8455 417.251 60.0363 416.867 59.7909 416.681Z" fill="#8BCFFF"/>
<path d="M54.3109 396.847L29.1317 378.245C28.8999 378.072 28.5591 378.192 28.491 378.47L26.7869 385.32C26.7324 385.519 26.5279 385.651 26.3098 385.611L6.73351 381.902C6.29727 381.822 6.06552 382.392 6.44723 382.617L32.5943 398.159C32.8125 398.291 33.1124 398.185 33.1942 397.947L34.98 392.408C35.0482 392.196 35.2663 392.09 35.4844 392.143L53.9428 397.536C54.3927 397.655 54.679 397.112 54.3109 396.847Z" fill="#8BCFFF"/>
<path d="M535.061 324.108L517.447 385.983H496.944L493.345 383.638L515.757 322.094L531.462 321.763L535.061 324.108Z" fill="#210045"/>
<path d="M504.047 342.803L491.137 386.195H472.474L467.116 383.253L486.406 342.405L500.598 339.464L504.047 342.803Z" fill="#210045"/>
<path d="M474.45 363.353L467.157 386.619H446.654L442.373 383.638L452.243 363.353L470.17 360.385L474.45 363.353Z" fill="#210045"/>
<path d="M531.462 321.763L513.848 383.638H493.345L511.899 321.763H531.462Z" fill="#A060FC"/>
<path d="M500.598 339.464L487.619 383.253H467.116L481.049 339.464H500.598Z" fill="#A060FC"/>
<path d="M470.17 360.385L462.876 383.638H442.373L447.962 360.385H470.17Z" fill="#A060FC"/>
<path d="M547.793 165.42L534.324 210.746L463.081 209.209L460.818 206.758L475.609 164.718L545.544 162.956L547.793 165.42Z" fill="#5DB6ED"/>
<g opacity="0.3">
<path d="M547.793 165.42L534.324 210.746L463.081 209.209L460.818 206.758L475.609 164.718L545.544 162.956L547.793 165.42Z" fill="black"/>
</g>
<path d="M545.544 162.955L532.075 208.294L460.818 206.757L473.36 162.253L545.544 162.955Z" fill="#5DB6ED"/>
<path d="M473.36 162.253C473.373 162.24 473.564 162.425 473.919 162.81C474.314 163.234 474.818 163.79 475.445 164.479C476.795 166.003 478.676 168.123 480.994 170.733C485.711 176.139 492.213 183.585 499.589 192.025L499.125 191.958C501.129 190.686 503.215 189.361 505.341 188.01C516.384 181.067 526.376 174.774 533.683 170.176C537.282 167.95 540.213 166.135 542.313 164.837C543.294 164.254 544.085 163.777 544.685 163.419C545.23 163.101 545.516 162.942 545.53 162.969C545.544 162.995 545.271 163.181 544.753 163.538C544.167 163.923 543.403 164.439 542.463 165.075C540.391 166.427 537.501 168.295 533.956 170.6C526.676 175.251 516.725 181.597 505.723 188.606C503.597 189.958 501.497 191.283 499.493 192.541L499.234 192.7L499.03 192.475C491.736 183.982 485.302 176.483 480.626 171.037C478.376 168.374 476.55 166.215 475.227 164.651C474.641 163.936 474.164 163.353 473.796 162.916C473.496 162.492 473.332 162.266 473.36 162.253Z" fill="black"/>
<path d="M513.985 182.949C514.148 182.843 518.32 188.421 523.323 195.43C528.312 202.425 532.238 208.189 532.075 208.295C531.911 208.401 527.74 202.823 522.737 195.814C517.747 188.818 513.835 183.055 513.985 182.949Z" fill="black"/>
<path d="M488.71 179.994C488.846 180.126 482.712 186.234 475.009 193.614C467.307 201.007 460.954 206.877 460.818 206.744C460.682 206.612 466.816 200.504 474.519 193.124C482.221 185.744 488.574 179.861 488.71 179.994Z" fill="black"/>
<path d="M229.584 129.791C266.393 129.791 296.233 100.79 296.233 65.015C296.233 29.2399 266.393 0.238464 229.584 0.238464C192.774 0.238464 162.934 29.2399 162.934 65.015C162.934 100.79 192.774 129.791 229.584 129.791Z" fill="#210045"/>
<path opacity="0.3" d="M229.583 129.553C266.393 129.553 296.233 100.552 296.233 64.7765C296.233 29.0014 266.393 0 229.583 0C192.774 0 162.934 29.0014 162.934 64.7765C162.934 100.552 192.774 129.553 229.583 129.553Z" fill="black"/>
<path d="M220.559 129.791C257.368 129.791 287.208 100.79 287.208 65.015C287.208 29.2399 257.368 0.238464 220.559 0.238464C183.75 0.238464 153.91 29.2399 153.91 65.015C153.91 100.79 183.75 129.791 220.559 129.791Z" fill="#FD625F"/>
<path d="M229.583 129.791C266.393 129.791 296.233 100.79 296.233 65.0149C296.233 29.2398 266.393 0.238403 229.583 0.238403C192.774 0.238403 162.934 29.2398 162.934 65.0149C162.934 100.79 192.774 129.791 229.583 129.791Z" fill="#210045"/>
<path opacity="0.3" d="M230.306 129.791C267.116 129.791 296.955 100.79 296.955 65.0148C296.955 29.2398 267.116 0.238342 230.306 0.238342C193.497 0.238342 163.657 29.2398 163.657 65.0148C163.657 100.79 193.497 129.791 230.306 129.791Z" fill="black"/>
<path d="M220.559 129.791C257.368 129.791 287.208 100.79 287.208 65.015C287.208 29.2399 257.368 0.238464 220.559 0.238464C183.75 0.238464 153.91 29.2399 153.91 65.015C153.91 100.79 183.75 129.791 220.559 129.791Z" fill="#210045"/>
<path d="M220.559 112.077C247.302 112.077 268.981 91.0066 268.981 65.015C268.981 39.0234 247.302 17.953 220.559 17.953C193.815 17.953 172.136 39.0234 172.136 65.015C172.136 91.0066 193.815 112.077 220.559 112.077Z" fill="white"/>
<path d="M220.559 95.5151C237.89 95.5151 251.941 81.8597 251.941 65.0149C251.941 48.1701 237.89 34.5146 220.559 34.5146C203.227 34.5146 189.177 48.1701 189.177 65.0149C189.177 81.8597 203.227 95.5151 220.559 95.5151Z" fill="#988BFF"/>
<path d="M223.842 78.6014C231.56 76.8392 236.347 69.3298 234.533 61.8287C232.72 54.3276 224.994 49.6754 217.276 51.4376C209.558 53.1998 204.771 60.7091 206.584 68.2102C208.397 75.7113 216.124 80.3636 223.842 78.6014Z" fill="white"/>
<path d="M220.559 65.0153L135.929 12.7065" stroke="#9F7FDB" stroke-width="2.46296" stroke-miterlimit="10" stroke-linecap="round" stroke-linejoin="round"/>
<path d="M155.095 25.3862L153.909 11.1298L140.986 1.35175L141.613 17.1848L155.095 25.3862Z" fill="#210045"/>
<path d="M126.904 20.4574L140.986 16.3103L155.082 24.4322L139.678 29.6525L126.904 20.4574Z" fill="#210045"/>
<path d="M212.42 68.4601C212.447 68.3409 213.443 68.6324 215.038 68.4999C216.605 68.3939 218.841 67.7314 220.531 66.062C222.222 64.3793 222.863 62.2064 222.944 60.6694C223.04 59.1193 222.726 58.1521 222.849 58.1256C222.917 58.0991 223.408 59.0265 223.435 60.6827C223.476 62.2991 222.89 64.6973 221.036 66.5389C219.168 68.3674 216.714 68.9901 215.051 68.9768C213.361 68.9901 212.393 68.5264 212.42 68.4601Z" fill="black"/>
<path d="M502.547 119.43L385.839 522.703C379.855 543.465 361.042 554.224 338.889 552.912L147.189 542.789C132.152 541.875 121.873 527.659 126.086 513.601L250.81 97.2373C253.795 87.287 263.283 80.543 273.944 80.7815L476.386 85.4586C491.559 85.8163 506.473 105.147 502.547 119.43Z" fill="#B6E9FF"/>
<path d="M129.726 533.541C129.726 533.541 130.353 533.554 131.553 533.607C132.78 533.674 134.565 533.767 136.924 533.886C141.654 534.151 148.607 534.535 157.55 535.038C175.477 536.072 201.392 537.569 233.415 539.411C249.433 540.338 266.978 541.372 285.804 542.458C295.224 543.015 304.958 543.584 314.991 544.167C320.008 544.459 325.093 544.764 330.26 545.055C335.413 545.413 340.648 545.572 345.896 544.962C351.131 544.379 356.339 542.962 361.178 540.669C366.141 538.55 370.039 534.588 372.916 530.043C375.833 525.486 377.933 520.411 379.609 515.178C381.218 509.918 382.663 504.525 384.217 499.119C390.338 477.496 396.691 455.091 403.18 432.157C429.232 340.391 452.802 257.33 469.87 197.204C478.431 167.155 485.37 142.842 490.155 126.028C492.568 117.641 494.436 111.123 495.704 106.684C496.344 104.485 496.835 102.802 497.162 101.663C497.49 100.536 497.68 99.9535 497.68 99.9535C497.68 99.9535 497.544 100.536 497.23 101.676C496.917 102.829 496.453 104.511 495.84 106.724C494.599 111.163 492.773 117.694 490.414 126.108C485.67 142.935 478.813 167.274 470.347 197.35C453.334 257.503 429.818 340.576 403.848 432.355C397.345 455.29 390.993 477.682 384.872 499.318C383.317 504.724 381.872 510.09 380.264 515.39C378.573 520.65 376.447 525.777 373.488 530.401C372.002 532.707 370.298 534.879 368.294 536.748C366.318 538.642 363.932 540.139 361.465 541.266C356.543 543.598 351.254 545.029 345.964 545.611C340.661 546.221 335.372 546.049 330.233 545.691C325.079 545.386 319.981 545.082 314.964 544.777C304.931 544.181 295.197 543.598 285.777 543.041C266.951 541.915 249.406 540.868 233.387 539.901C201.365 537.967 175.463 536.39 157.536 535.303C148.593 534.747 141.641 534.31 136.91 534.018C134.565 533.859 132.766 533.753 131.553 533.661C130.339 533.594 129.726 533.541 129.726 533.541Z" fill="white"/>
<path d="M334.976 97.1441L407.392 99.211C408.755 99.2508 409.887 98.2041 409.928 96.8924C409.968 95.5674 408.891 94.4677 407.542 94.428L335.126 92.3611C333.763 92.3213 332.631 93.368 332.59 94.6797C332.536 96.0047 333.613 97.1044 334.976 97.1441Z" fill="white"/>
<path d="M271.135 106.061L467.975 108.579C471.533 108.618 474.069 111.931 473.114 115.256L365.513 490.626C362.773 500.179 353.639 506.671 343.442 506.3L158.258 499.57C149.52 499.252 143.399 491.05 145.798 482.875L252.5 119.523C254.872 111.467 262.506 105.955 271.135 106.061Z" fill="#EAF4F2"/>
<path opacity="0.5" d="M373.474 107.359L448.807 198.675L441.991 222.722L350.353 107.187L373.474 107.359Z" fill="white"/>
<path opacity="0.5" d="M385.621 107.532L452.911 185.717L455.229 177.635L392.328 107.612L385.621 107.532Z" fill="white"/>
<path opacity="0.13" d="M251.355 548.288V402.995L327.71 416.297L328.528 382.339L225.985 374.508L232.965 547.321L251.355 548.288Z" fill="black"/>
<path d="M231.397 187.705C236.373 185.174 239.086 182.127 241.567 177.238C235.773 180.391 228.984 181.809 222.359 181.226C221.923 176.907 222.032 177.94 221.595 173.621C229.434 171.514 237.436 169.341 244.198 164.956C250.96 160.557 260.094 153.151 261.689 145.4C262.875 139.61 256.795 137.119 253.4 127.977C250.524 120.265 251.873 113.111 256.522 105.877C258.799 102.326 261.539 99.2651 264.538 96.2575C270.195 90.6 278.729 87.6321 286.718 89.6593C294.952 81.8818 317.705 84.5052 327.165 88.8113C336.626 93.1041 340.825 94.1641 346.824 102.458C356.939 116.436 366.168 140.14 363.987 157.099C361.792 174.058 351.05 190.236 335.045 197.324C327.002 200.888 318.113 202.094 309.389 203.459C300.664 204.823 291.776 206.466 284.128 210.759C276.48 215.052 270.168 222.525 269.691 231.097C250.36 223.412 233.592 208.811 223.777 190.236C223.777 190.236 225.099 190.911 231.397 187.705Z" fill="#271F4F"/>
<path d="M341.725 180.988L334.786 142.034L325.407 110.13L288.967 93.9786L284.127 96.178C272.935 101.279 263.311 111.494 266.105 124.32V124.519C266.105 124.519 272.254 154.767 277.993 164.108C285.15 175.754 294.515 174.045 298.073 178.523C300.105 181.08 301.045 184.817 301.482 188.103C302.286 194.144 306.962 199.033 313.137 200.08C321.344 201.498 332.536 199.007 341.725 180.988Z" fill="#F5B08B"/>
<path d="M270.386 121.246C270.658 120.663 271.176 120.306 271.708 120.054C272.253 119.789 272.839 119.617 273.426 119.497C273.48 119.484 273.535 119.484 273.589 119.471C273.889 119.418 274.203 119.365 274.503 119.352C274.871 119.325 275.239 119.338 275.593 119.378C275.634 119.378 275.675 119.378 275.702 119.391C276.098 119.444 276.507 119.524 276.916 119.643C276.956 119.656 277.011 119.656 277.052 119.67H277.038C277.106 119.696 277.161 119.696 277.229 119.723C277.938 119.961 278.647 120.332 279.124 120.981C279.601 121.631 279.737 122.624 279.288 123.221C278.988 123.618 278.51 123.764 278.061 123.896C277.406 124.095 276.766 124.294 276.111 124.479C275.266 124.731 274.421 124.996 273.535 124.996C272.649 124.996 271.708 124.731 271.026 124.055C270.331 123.34 269.977 122.134 270.386 121.246Z" fill="#271F4F"/>
<path d="M294.57 117.655C294.842 117.072 295.36 116.715 295.892 116.463C296.437 116.198 297.024 116.026 297.61 115.906C297.664 115.893 297.719 115.893 297.773 115.88C298.073 115.827 298.387 115.774 298.687 115.761C299.055 115.734 299.423 115.747 299.777 115.787C299.818 115.787 299.859 115.787 299.886 115.787C300.282 115.84 300.691 115.92 301.1 116.039C301.141 116.052 301.195 116.052 301.236 116.065H301.222C301.291 116.092 301.345 116.092 301.413 116.118C302.122 116.357 302.831 116.728 303.308 117.377C303.785 118.026 303.922 119.02 303.472 119.616C303.172 120.014 302.695 120.16 302.245 120.292C301.59 120.491 300.95 120.69 300.295 120.875C299.45 121.127 298.605 121.392 297.719 121.392C296.833 121.392 295.892 121.127 295.21 120.451C294.529 119.749 294.161 118.543 294.57 117.655Z" fill="#271F4F"/>
<path d="M304.358 129.447C304.058 128.414 304.004 127.142 303.118 126.387L302.886 126.294C302.068 126.135 301.155 126.122 300.528 126.665C299.969 127.142 299.778 127.963 299.832 128.705C299.901 129.739 300.35 130.706 300.773 131.647C301.005 132.15 301.237 132.654 301.591 133.064C301.945 133.475 302.45 133.806 302.995 133.806C303.881 133.82 304.577 132.972 304.726 132.084C304.89 131.21 304.604 130.309 304.358 129.447Z" fill="black"/>
<path d="M281.633 135.198C281.333 134.165 281.278 132.893 280.392 132.137L280.16 132.045C279.342 131.886 278.429 131.872 277.802 132.416C277.243 132.893 277.052 133.714 277.107 134.456C277.175 135.489 277.625 136.457 278.047 137.397C278.279 137.901 278.511 138.404 278.865 138.815C279.22 139.226 279.724 139.557 280.269 139.557C281.156 139.57 281.851 138.722 282.001 137.835C282.151 136.96 281.878 136.059 281.633 135.198Z" fill="black"/>
<path d="M290.167 174.337L294.597 176.417C296.737 177.331 298.482 178.934 299.546 180.961L299.573 181.028C308.025 177.728 314.501 174.761 319.381 167.288C309.606 172.813 302.79 175.502 290.167 174.337Z" fill="#F07B54"/>
<path d="M295.565 145.598C295.565 145.638 295.211 145.665 294.597 145.585C293.984 145.506 293.098 145.32 292.075 144.87C291.053 144.419 289.908 143.704 288.885 142.644C288.381 142.114 287.904 141.504 287.495 140.815L287.209 140.285C287.127 140.1 286.99 139.769 287.154 139.437C287.331 139.106 287.658 138.987 287.904 138.934C288.149 138.881 288.395 138.894 288.585 138.894C290.317 138.894 291.966 138.894 293.493 138.894L293.18 139.265C292.512 135.211 292.13 132.375 292.266 132.349C292.403 132.322 293.043 135.118 293.82 139.146L293.889 139.517H293.507C291.98 139.53 290.33 139.557 288.599 139.583C288.19 139.557 287.808 139.649 287.795 139.729C287.713 139.755 287.931 140.179 288.108 140.497C288.476 141.147 288.913 141.716 289.376 142.22C290.303 143.24 291.353 143.955 292.294 144.432C294.202 145.4 295.593 145.466 295.565 145.598Z" fill="black"/>
<path d="M347.723 103.744C359.611 121.75 352.263 134.284 336.217 148.938L329.347 130.627C308.584 124.082 293.479 108.037 285.45 89.6861C309.838 74.4492 335.836 85.7245 347.723 103.744Z" fill="#271F4F"/>
<path d="M328.324 151.534C332.768 151.097 338.058 147.52 339.707 145.002C341.97 141.557 342.611 138.179 341.684 134.178C340.757 130.189 337.785 126.546 333.763 125.34C329.742 124.148 324.821 125.87 323.035 129.567" fill="#F5B08B"/>
<path d="M331.991 131.024C332.891 130.613 334.009 130.865 334.813 131.435C335.617 132.004 336.163 132.865 336.599 133.727C337.731 135.939 338.303 138.536 337.54 140.908C336.79 143.266 334.445 145.24 331.909 145.068C331.419 145.042 330.873 144.896 330.614 144.485C330.246 143.929 330.587 143.213 330.832 142.591C331.364 141.266 331.446 139.795 331.078 138.417C330.928 137.834 330.669 137.264 330.219 136.854C329.769 136.443 329.088 136.244 328.529 136.469C328.147 136.628 327.792 136.973 327.383 136.867C326.797 136.708 326.92 135.86 327.22 135.33C328.297 133.435 329.987 131.872 331.991 130.931" fill="#F07B54"/>
<path d="M329.415 144.446C329.387 144.393 329.783 144.247 330.233 143.731C330.696 143.227 331.132 142.3 331.091 141.081C331.091 140.484 331.01 139.782 330.86 139.093C330.696 138.404 330.451 137.649 329.919 137.132C329.415 136.602 328.569 136.443 327.82 136.801C327.056 137.119 326.497 137.835 326.102 138.669C325.897 139.093 325.734 139.544 325.584 139.968L324.902 139.795C325.543 136.178 327.847 133.542 329.728 132.23C330.682 131.554 331.528 131.144 332.141 130.918C332.755 130.693 333.095 130.627 333.109 130.667C333.164 130.786 331.787 131.197 330.014 132.601C328.269 133.966 326.17 136.51 325.584 139.915L324.902 139.742C325.052 139.318 325.229 138.855 325.448 138.391C325.857 137.49 326.552 136.602 327.52 136.192C328.46 135.728 329.728 135.966 330.369 136.708C331.037 137.411 331.255 138.259 331.419 139.001C331.555 139.756 331.596 140.458 331.582 141.107C331.555 142.432 330.982 143.452 330.41 143.943C329.864 144.42 329.415 144.473 329.415 144.446Z" fill="black"/>
<path d="M301.809 146.791C302.531 146.393 303.39 145.983 304.167 146.261C304.89 146.526 305.258 147.308 305.408 148.036C305.708 149.573 305.312 151.243 304.317 152.488C303.335 153.734 301.781 154.542 300.173 154.661L300.091 154.648C297.828 154.158 296.028 152.488 295.429 150.302C297.555 149.136 299.682 147.957 301.809 146.791Z" fill="#F07B54"/>
<path d="M300.173 154.661C300.145 154.529 301.454 154.529 302.981 153.403C303.731 152.846 304.467 151.985 304.862 150.832C305.23 149.732 305.326 148.235 304.671 147.122C304.331 146.579 303.758 146.394 303.158 146.566C302.558 146.712 301.972 147.083 301.4 147.387C300.309 147.957 299.287 148.487 298.346 148.99C296.601 149.891 295.497 150.395 295.442 150.315C295.388 150.236 296.41 149.573 298.101 148.566C299.028 148.036 300.023 147.454 301.072 146.831C301.631 146.526 302.204 146.129 302.981 145.917C303.363 145.824 303.826 145.784 304.249 145.93C304.685 146.076 305.039 146.394 305.271 146.751C306.116 148.222 305.912 149.785 305.476 151.044C305.012 152.316 304.126 153.257 303.281 153.8C301.522 154.913 300.145 154.727 300.173 154.661Z" fill="black"/>
<path opacity="0.56" d="M305.571 141.279C306.935 143.571 311.011 143.743 314.678 141.69C318.345 139.623 320.226 136.098 318.863 133.819C317.5 131.527 313.424 131.355 309.756 133.409C306.089 135.462 304.208 138.987 305.571 141.279Z" fill="#F07B54"/>
<path opacity="0.56" d="M276.125 144.286C280.242 143.319 284.114 144.604 284.741 147.175C285.368 149.745 282.56 152.607 278.443 153.574C276.739 153.972 275.062 153.985 273.658 153.68L271.477 146.499C272.513 145.784 274.653 144.631 276.125 144.286Z" fill="#F07B54"/>
<path d="M230.13 236.118L235.814 248.85L264.783 209.91C270.632 203.63 277.884 198.715 285.968 195.574L301.714 189.135C315.864 197.522 329.565 194.435 341.889 181.066L367.722 179.344L370.285 179.172C374.402 179.145 378.233 180.377 381.478 181.981C386.985 184.71 391.47 189.056 394.647 194.21C399.091 201.404 425.797 247.221 432.218 258.536L420.535 298.748C413.528 299.106 404.366 296.906 399.459 288.109L383.55 248.97L390.761 300.484L312.511 318.066L294.516 286.532C294.516 286.532 285.532 274.687 283.433 266.909C281.756 260.735 281.374 256.403 281.442 253.74C275.744 260.351 261.921 276.86 249.774 288.135C243.135 294.296 228.766 303.213 219.074 292.653C208.154 280.742 201.651 255.753 201.651 255.753L230.13 236.118Z" fill="#988BFF"/>
<path d="M377.033 204.956C377.06 204.956 377.142 205.274 377.265 205.896C377.401 206.585 377.565 207.486 377.783 208.599C378.192 210.958 378.764 214.363 379.405 218.589C380.7 227.042 382.336 238.728 384.081 251.647C385.785 264.538 387.339 276.211 388.471 284.744C389.016 288.917 389.466 292.322 389.793 294.774C389.943 295.9 390.052 296.814 390.148 297.503C390.216 298.126 390.243 298.457 390.229 298.457C390.202 298.457 390.134 298.139 390.011 297.516C389.889 296.827 389.725 295.926 389.52 294.8C389.125 292.442 388.593 289.023 387.98 284.797C386.739 276.344 385.131 264.644 383.386 251.726C381.641 238.848 380.06 227.188 378.914 218.656C378.328 214.482 377.851 211.077 377.51 208.639C377.347 207.513 377.224 206.612 377.115 205.91C377.033 205.287 377.006 204.969 377.033 204.956Z" fill="black"/>
<path d="M230.307 269.082C230.211 269.069 230.279 267.877 230.539 265.956C230.798 264.034 231.275 261.411 231.984 258.536C232.692 255.661 233.497 253.104 234.165 251.288C234.833 249.46 235.324 248.374 235.419 248.4C235.514 248.427 235.187 249.579 234.656 251.434C234.124 253.289 233.388 255.846 232.692 258.695C231.997 261.543 231.438 264.14 231.057 266.035C230.648 267.93 230.416 269.096 230.307 269.082Z" fill="#2E4E5F"/>
<path d="M277.421 234.489L282.029 224.392C280.175 234.687 280.093 243.339 281.156 253.74L273.931 261.372C273.945 261.372 272.881 245.472 277.421 234.489Z" fill="black"/>
<path d="M121.192 145.823C123.074 153.004 130.585 157.337 137.974 155.509C145.363 153.68 149.821 146.38 147.939 139.198C146.058 132.017 138.546 127.685 131.158 129.513C123.769 131.342 119.311 138.642 121.192 145.823Z" fill="#C2EEFF"/>
<path d="M181.393 181.795C182.088 178.708 185.292 178.774 187.255 179.265C187.977 179.45 196.634 181.755 203.437 183.65C203.314 182.815 202.019 173.13 203.887 170.573C205.85 167.897 208.072 169.394 208.194 173.567C208.317 177.741 210.921 181 212.72 185.28C214.534 189.559 212.23 202.491 212.23 202.491L212.584 205.339L226.639 238.105L205.236 254.641L192.449 211.885C192.449 211.885 180.97 205.949 179.866 203.1C178.762 200.238 181.011 198.86 181.011 198.86C181.011 198.86 178.953 198.49 178.544 196.065C178.135 193.64 179.934 192.673 179.934 192.673C179.934 192.673 178.585 191.216 178.789 189.241C179.035 186.83 182.156 185.783 182.156 185.783C182.156 185.783 180.739 184.697 181.393 181.795Z" fill="#F5B08B"/>
<path d="M190.581 165.962L196.539 139.569L211.63 143.902C217.315 145.2 220.45 152.871 219.182 158.41C217.874 164.067 212.039 167.592 206.245 166.2L205.223 166.081L198.311 206.651C197.888 209.142 195.38 210.758 192.858 210.162C187.746 208.956 179.894 207.539 179.894 207.539C179.43 207.976 189.982 168.201 190.581 165.962Z" fill="#2E70FF"/>
<path d="M202.633 207.367C202.605 207.394 202.333 207.142 201.965 206.599C201.597 206.055 201.147 205.207 200.82 204.094C200.124 201.882 199.934 198.543 200.874 195.151C201.229 193.588 201.638 192.064 202.237 190.752C202.824 189.441 203.546 188.341 204.187 187.427L204.16 187.652C203.751 186.327 203.696 185.267 203.56 184.538C203.451 183.81 203.342 183.412 203.396 183.399C203.437 183.386 203.642 183.757 203.846 184.485C204.064 185.201 204.228 186.287 204.664 187.48L204.705 187.599L204.637 187.705C204.051 188.632 203.383 189.719 202.851 190.991C202.306 192.263 201.924 193.72 201.569 195.284C200.642 198.622 200.765 201.776 201.297 203.962C201.815 206.161 202.742 207.288 202.633 207.367Z" fill="#F07B54"/>
<path d="M182.156 185.783C182.156 185.783 189.9 187.837 194.385 189.188C195.544 189.533 196.716 189.957 197.929 189.917C199.143 189.877 200.424 188.817 200.765 187.678C201.406 185.571 199.442 183.041 197.084 182.392L184.719 179.039" fill="#F5B08B"/>
<path d="M179.676 192.593C179.676 192.593 187.419 194.647 191.904 195.999C193.063 196.343 194.235 196.767 195.449 196.727C196.662 196.688 197.943 195.628 198.284 194.488C198.925 192.381 196.962 189.851 194.603 189.202L182.239 185.849" fill="#F5B08B"/>
<path d="M180.33 203.922C181.611 204.783 184.011 205.26 187.528 206.201C188.468 206.452 189.75 206.704 190.718 206.677C191.699 206.651 192.872 206.267 193.158 205.366C193.758 203.524 192.067 202.411 191.113 202.186L180.112 199.072C180.125 199.059 177.303 201.881 180.33 203.922Z" fill="#F5B08B"/>
<path d="M180.193 198.715C181.788 199.775 184.774 200.384 189.136 201.55C190.309 201.868 191.89 202.173 193.103 202.133C194.317 202.094 195.775 201.617 196.143 200.49C196.893 198.212 194.78 196.82 193.608 196.529L179.934 192.66C179.921 192.673 176.417 196.184 180.193 198.715Z" fill="#F5B08B"/>
<path d="M181.884 185.717C181.938 185.531 185.006 186.234 188.714 187.28C192.435 188.327 195.407 189.321 195.353 189.506C195.298 189.692 192.245 188.99 188.523 187.943C184.801 186.896 181.829 185.902 181.884 185.717Z" fill="#F07B54"/>
<path d="M179.826 192.62C179.88 192.435 183.152 193.15 187.133 194.223C191.113 195.297 194.303 196.304 194.249 196.489C194.194 196.675 190.922 195.959 186.942 194.886C182.961 193.826 179.771 192.806 179.826 192.62Z" fill="#F07B54"/>
<path d="M180.493 198.688C180.548 198.503 182.988 199.099 185.919 200C188.864 200.901 191.195 201.789 191.127 201.974C191.072 202.16 188.632 201.564 185.701 200.663C182.77 199.748 180.425 198.861 180.493 198.688Z" fill="#F07B54"/>
<path d="M142.363 111.335C158.259 132.03 196.525 139.556 196.525 139.556L191.058 163.816C165.647 159.735 126.263 174.561 126.263 174.561L142.363 111.335Z" fill="#22B3F0"/>
<path d="M126.264 178.191C128.281 178.642 130.299 177.396 130.749 175.436L145.69 111.189C146.153 109.228 144.872 107.267 142.854 106.83C140.837 106.379 138.819 107.625 138.369 109.586L123.428 173.832C122.964 175.793 124.232 177.741 126.264 178.191Z" fill="#2E70FF"/>
<path d="M232.611 524.757C232.611 515.482 232.611 506.208 232.611 496.92H188.264L190.105 537.662L219.442 548.5L232.624 533.13V524.757H232.611Z" fill="white"/>
<path d="M241.403 581.266C241.676 563.657 239.168 552.607 239.44 534.999C239.495 531.792 239.263 528.043 236.523 526.254C234.055 524.638 230.606 525.499 228.221 527.235C225.835 528.957 224.117 531.408 221.95 533.382C216.81 538.046 208.999 539.742 202.305 537.635C195.612 535.529 190.295 529.712 188.946 522.995C168.333 535.052 147.707 547.109 127.095 559.166C122.869 561.63 118.506 564.227 115.766 568.215C113.026 572.19 112.399 577.98 115.671 581.571L241.403 581.266Z" fill="#A060FC"/>
<path d="M113.421 572.548C113.421 572.548 199.838 572.032 241.294 571.793L241.403 581.28L115.657 581.584C115.657 581.558 111.09 576.868 113.421 572.548Z" fill="#210045"/>
<path d="M177.14 541.902C177.14 542.869 177.944 543.651 178.94 543.651C179.935 543.651 180.739 542.869 180.739 541.902C180.739 540.935 179.935 540.153 178.94 540.153C177.944 540.153 177.14 540.935 177.14 541.902Z" fill="white"/>
<path d="M167.134 547.44C167.134 548.407 167.938 549.189 168.933 549.189C169.929 549.189 170.733 548.407 170.733 547.44C170.733 546.473 169.929 545.691 168.933 545.691C167.952 545.691 167.134 546.473 167.134 547.44Z" fill="white"/>
<path d="M156.759 552.912C156.759 553.879 157.564 554.661 158.559 554.661C159.554 554.661 160.358 553.879 160.358 552.912C160.358 551.945 159.554 551.163 158.559 551.163C157.577 551.163 156.759 551.945 156.759 552.912Z" fill="white"/>
<path d="M158.573 553.27C158.354 553.323 157.918 550.885 156.037 548.58C154.21 546.235 151.893 545.214 151.988 545.029C152.015 544.857 154.619 545.665 156.596 548.156C158.6 550.633 158.75 553.283 158.573 553.27Z" fill="white"/>
<path d="M168.497 547.149C168.279 547.202 167.843 544.764 165.961 542.458C164.135 540.113 161.817 539.093 161.912 538.907C161.94 538.735 164.544 539.543 166.52 542.034C168.524 544.512 168.674 547.162 168.497 547.149Z" fill="white"/>
<path d="M178.353 541.783C178.135 541.836 177.699 539.398 175.818 537.092C173.991 534.747 171.673 533.727 171.769 533.542C171.796 533.369 174.4 534.178 176.377 536.668C178.381 539.146 178.531 541.809 178.353 541.783Z" fill="white"/>
<path d="M232.61 512.581L188.986 513.018L189.327 520.57L232.61 516.794V512.581Z" fill="black"/>
<path d="M240.613 571.872C197.643 571.872 156.391 572.548 113.422 572.548" stroke="#2E4E5F" stroke-width="0.0615741" stroke-miterlimit="10"/>
<path d="M202.551 307.758C220.709 301.557 279.288 307.665 320.049 312.978L320.731 301.862L364.069 318.172L378.124 409.726L240.354 384.3L243.517 512.502L180.439 513.018C180.439 513.018 172.3 383.373 169.969 363.141C167.638 342.896 174.386 317.377 202.551 307.758Z" fill="#210045"/>
<path d="M364.627 223.147C364.627 223.147 386.698 299.318 386.235 299.437L390.229 298.444C390.229 298.444 412.355 312.144 415.831 315.072C415.831 315.072 412.3 328.48 407.065 347.069C403.971 358.04 399.772 369.593 396.132 383.823L374.784 458.325L365.786 489.713C365.786 489.713 364.137 494.986 361.56 498.06C356.312 504.274 348.432 510.037 341.738 499.557C330.601 482.121 319.408 342.193 319.408 342.193L310.888 331.726C299.205 303.333 287.331 264.141 286.936 242.385L364.627 223.147Z" fill="#210045"/>
<path d="M365.595 227.559L364.041 179.199L355.48 179.769L356.039 227.785L365.595 227.559Z" fill="#210045"/>
<path d="M296.847 243.538L291.244 192.329L282.764 196.556L288.981 245.486L296.847 243.538Z" fill="#210045"/>
<path d="M356.461 233.853C356.939 235.642 358.806 236.728 360.66 236.278C362.501 235.814 363.618 233.999 363.155 232.197C362.678 230.408 360.81 229.322 358.956 229.772C357.102 230.236 355.984 232.064 356.461 233.853Z" fill="white"/>
<path d="M360.361 232.728C360.429 233.006 360.715 233.165 361.002 233.099C361.288 233.032 361.452 232.754 361.383 232.476C361.315 232.198 361.029 232.039 360.743 232.105C360.456 232.171 360.293 232.449 360.361 232.728Z" fill="#73AC9D"/>
<path d="M358.507 233.574C358.575 233.853 358.861 234.012 359.147 233.945C359.434 233.879 359.597 233.601 359.529 233.323C359.461 233.044 359.175 232.885 358.888 232.952C358.602 233.018 358.439 233.296 358.507 233.574Z" fill="#73AC9D"/>
<path d="M293.916 249.342C294.393 251.13 296.261 252.217 298.115 251.766C299.955 251.303 301.073 249.487 300.609 247.685C300.132 245.897 298.265 244.81 296.411 245.261C294.57 245.724 293.452 247.553 293.916 249.342Z" fill="white"/>
<path d="M297.828 248.215C297.896 248.494 298.183 248.653 298.469 248.586C298.755 248.52 298.919 248.242 298.851 247.964C298.783 247.685 298.496 247.526 298.21 247.593C297.924 247.672 297.746 247.95 297.828 248.215Z" fill="#73AC9D"/>
<path d="M295.96 249.063C296.029 249.342 296.315 249.501 296.601 249.434C296.887 249.368 297.051 249.09 296.983 248.812C296.915 248.533 296.628 248.374 296.342 248.441C296.069 248.507 295.892 248.785 295.96 249.063Z" fill="#73AC9D"/>
<path d="M313.778 330.548C313.805 330.548 313.873 330.892 313.982 331.555C314.092 332.283 314.241 333.264 314.432 334.47C314.828 337.08 315.4 340.723 316.082 345.215C317.5 354.344 319.422 366.838 321.562 380.644C323.702 394.45 325.652 406.944 327.07 416.073C327.765 420.551 328.337 424.195 328.746 426.805C328.937 428.024 329.087 428.991 329.196 429.72C329.292 430.382 329.333 430.74 329.305 430.74C329.278 430.74 329.196 430.395 329.046 429.733C328.91 429.071 328.692 428.09 328.46 426.831C327.983 424.314 327.329 420.657 326.565 416.126C325.025 407.076 323.007 394.556 320.853 380.723C318.713 366.891 316.845 354.344 315.577 345.255C314.937 340.71 314.46 337.027 314.146 334.483C313.982 333.211 313.887 332.217 313.833 331.541C313.764 330.905 313.751 330.548 313.778 330.548Z" fill="black"/>
<path d="M222.823 355.668C222.864 355.642 223.204 355.986 223.804 356.636C224.404 357.285 225.236 358.252 226.217 359.484C228.194 361.949 230.729 365.5 233.156 369.633C235.583 373.78 237.409 377.715 238.582 380.63C239.168 382.088 239.604 383.267 239.877 384.102C240.15 384.936 240.272 385.4 240.231 385.413C240.122 385.453 239.413 383.651 238.132 380.816C236.85 377.967 234.956 374.098 232.556 369.978C230.143 365.87 227.689 362.306 225.835 359.776C223.954 357.258 222.741 355.735 222.823 355.668Z" fill="black"/>
<path d="M214.561 367.526C214.67 367.367 220.532 371.09 227.662 375.847C234.792 380.604 240.463 384.578 240.354 384.737C240.245 384.896 234.383 381.173 227.253 376.417C220.137 371.66 214.452 367.685 214.561 367.526Z" fill="black"/>
<path d="M368.785 319.537C368.881 319.444 370.34 320.889 373.052 322.796C374.402 323.75 376.092 324.771 378.028 325.778C379.991 326.745 382.213 327.685 384.64 328.441C387.067 329.169 389.452 329.646 391.633 329.938C393.815 330.203 395.805 330.309 397.482 330.269C400.822 330.216 402.867 329.845 402.894 329.978C402.908 330.031 402.403 330.137 401.476 330.322C401.013 330.415 400.44 330.508 399.772 330.574C399.104 330.64 398.341 330.746 397.495 330.759C395.805 330.865 393.787 330.799 391.552 330.574C389.33 330.309 386.903 329.845 384.436 329.103C381.968 328.335 379.719 327.367 377.728 326.347C375.765 325.301 374.075 324.214 372.752 323.194C372.071 322.717 371.512 322.2 371.008 321.776C370.489 321.352 370.08 320.955 369.767 320.624C369.099 319.948 368.745 319.564 368.785 319.537Z" fill="black"/>
<path d="M427.691 226.168C430.377 225.267 435.134 227.175 438.87 230.633L441.705 233.203C443.982 235.336 445.004 237.35 445.399 239.179C445.958 241.762 443.75 244.346 441.119 245.061C438.488 245.777 435.693 245.075 433.185 244.055C430.567 242.995 428.591 241.113 426.709 239.046C424.828 236.979 423.083 234.674 423.315 231.931C423.547 229.175 425.005 227.056 427.691 226.168Z" fill="#F5B08B"/>
<path d="M423.247 238.092C425.933 237.192 430.69 239.099 434.426 242.558L437.261 245.128C439.538 247.261 440.56 249.275 440.956 251.103C441.515 253.687 439.306 256.271 436.675 256.986C434.058 257.715 431.249 256.999 428.741 255.979C426.123 254.919 424.147 253.038 422.265 250.971C420.384 248.904 418.639 246.599 418.871 243.856C419.103 241.113 420.561 238.993 423.247 238.092Z" fill="#F5B08B"/>
<path d="M418.353 249.262C421.039 248.361 425.796 250.269 429.532 253.727L432.367 256.297C434.644 258.43 435.666 260.444 436.062 262.273C436.621 264.856 434.412 267.44 431.781 268.155C429.164 268.884 426.355 268.169 423.847 267.148C421.23 266.088 419.253 264.207 417.372 262.14C415.49 260.073 413.745 257.768 413.977 255.025C414.209 252.269 415.668 250.163 418.353 249.262Z" fill="#F5B08B"/>
<path d="M425.02 236.807C425.129 236.648 428.373 238.689 432.259 241.365C436.144 244.041 439.198 246.334 439.089 246.493C438.979 246.652 435.735 244.611 431.85 241.935C427.964 239.258 424.911 236.966 425.02 236.807Z" fill="#F07B54"/>
<path d="M421.884 249.222C422.02 249.076 424.61 251.222 427.923 253.687C431.235 256.164 434.044 258.033 433.935 258.192C433.839 258.351 430.84 256.734 427.487 254.23C424.147 251.752 421.761 249.354 421.884 249.222Z" fill="#F07B54"/>
<path d="M170.296 242.492L151.292 327.924C150.201 332.813 145.989 336.271 141.122 336.285L11.4909 336.576C6.82855 336.589 -1.01013 328.295 0.107732 323.631L24.5644 243.062C25.3415 239.789 28.1907 237.483 31.4625 237.497L162.28 232.157C170.323 232.157 170.855 239.974 170.296 242.492Z" fill="#8BCFFF"/>
<path d="M166.097 237.098L147.094 322.531C146.003 327.42 141.791 330.878 136.924 330.891L7.29251 331.183C2.6302 331.196 -0.818821 326.691 0.299043 322.027L20.3661 237.668C21.1431 234.395 23.9923 232.09 27.2641 232.103L162.28 232.17C164.789 232.156 166.656 234.568 166.097 237.098Z" fill="#F0F8FC"/>
<path d="M163.357 249.434L166.029 237.152C166.629 234.608 164.761 232.157 162.212 232.157L27.3184 232.09C24.0193 232.09 21.1701 234.422 20.4067 237.721L17.8574 248.255L163.357 249.434Z" fill="#14AFF4"/>
<path d="M147.161 240.849C147.161 242.889 148.865 244.545 150.965 244.545C153.064 244.545 154.768 242.889 154.768 240.849C154.768 238.808 153.064 237.152 150.965 237.152C148.865 237.152 147.161 238.808 147.161 240.849Z" fill="#FD625F"/>
<path d="M137.197 240.849C137.197 242.889 138.901 244.545 141 244.545C143.099 244.545 144.803 242.889 144.803 240.849C144.803 238.808 143.099 237.152 141 237.152C138.887 237.152 137.197 238.808 137.197 240.849Z" fill="#EEB45B"/>
<path d="M127.217 240.849C127.217 242.889 128.921 244.545 131.021 244.545C133.12 244.545 134.824 242.889 134.824 240.849C134.824 238.808 133.12 237.152 131.021 237.152C128.921 237.152 127.217 238.808 127.217 240.849Z" fill="#B1CA93"/>
<path d="M91.1321 268.553C91.1321 268.367 103.142 268.208 117.961 268.208C132.779 268.208 144.79 268.367 144.79 268.553C144.79 268.738 132.779 268.897 117.961 268.897C103.142 268.897 91.1321 268.738 91.1321 268.553Z" fill="#4293EA"/>
<path d="M83.2256 294.416C83.2256 294.231 95.2359 294.072 110.054 294.072C124.873 294.072 136.883 294.231 136.883 294.416C136.883 294.602 124.873 294.761 110.054 294.761C95.2359 294.761 83.2256 294.602 83.2256 294.416Z" fill="#4293EA"/>
<path d="M78.6446 308.553C78.6446 308.368 90.6548 308.208 105.473 308.208C120.292 308.208 132.302 308.368 132.302 308.553C132.302 308.738 120.292 308.897 105.473 308.897C90.6548 308.897 78.6446 308.738 78.6446 308.553Z" fill="#4293EA"/>
<path d="M87.3426 281.63C87.3426 281.445 99.3528 281.286 114.171 281.286C128.99 281.286 141 281.445 141 281.63C141 281.816 128.99 281.975 114.171 281.975C99.3528 281.975 87.3426 281.816 87.3426 281.63Z" fill="#4293EA"/>
<path d="M27.1816 313.045H55.3191C61.4673 313.045 67.3974 308.09 68.5698 301.968L73.573 275.787C74.7454 269.666 70.5874 264.711 64.2892 264.711H35.4702C29.1719 264.711 23.2554 269.666 22.233 275.787L17.8979 301.968C16.8754 308.09 21.0334 313.045 27.1816 313.045Z" stroke="#4293EA" stroke-width="1.23148" stroke-miterlimit="10"/>
<path d="M20.3928 284.545C24.6052 281.578 30.808 280.173 35.4567 280.822C40.1053 281.458 42.3002 283.79 44.3314 288.07C45.5311 290.6 46.6626 296.735 49.3891 297.662C51.6657 298.444 55.6873 294.761 58.6728 293.82C62.9534 292.482 67.1113 294.999 69.1698 298.245L67.8475 305.162C67.0159 309.534 62.7762 313.071 58.3865 313.071H24.1008C19.643 313.071 16.6575 309.415 17.5027 304.989L20.3928 284.545Z" fill="#4293EA"/>
<path d="M53.7925 277.642C53.1791 281.034 55.483 283.777 58.932 283.777C62.381 283.777 65.6937 281.034 66.3344 277.642C66.9752 274.25 64.6713 271.508 61.195 271.508C57.7187 271.521 54.406 274.264 53.7925 277.642Z" fill="#4293EA"/>
<path d="M15.5669 143.558C18.4979 153.071 27.3454 161.113 37.3516 163.114H38.1832C36.6564 168.665 33.2074 173.7 28.5314 177.198C36.3428 177.662 43.977 171.633 45.1085 164.108C55.2238 165.87 65.5573 161.391 72.0327 153.627C78.5081 145.863 79.2306 133.422 69.7697 122.571C63.6623 115.575 55.2238 113.693 45.8038 113.243C38.6194 112.898 31.0534 113.574 25.0006 117.364C16.3985 122.716 12.6496 134.045 15.5669 143.558ZM34.7887 136.8C35.0477 133.316 38.2514 130.931 41.3732 131.448C43.7589 131.845 45.5311 134.217 45.7356 136.244C45.981 134.217 47.3715 132.481 49.839 131.554C52.8245 130.441 56.4099 133.303 56.6825 136.8C56.887 139.57 55.401 142.113 53.9015 144.339C51.5431 147.837 45.2312 151.984 45.2312 151.984C45.7356 151.984 39.9145 147.837 37.5561 144.339C36.0702 142.1 34.5706 139.57 34.7887 136.8Z" fill="#D1D1F2"/>
<path d="M322.83 42.2524C322.271 47.0355 325.816 51.3416 330.737 51.8715C335.658 52.4148 340.089 48.9699 340.634 44.1869C341.193 39.4038 337.649 35.0978 332.727 34.5678C327.806 34.0378 323.375 37.4694 322.83 42.2524Z" fill="#D1D1F2"/>
<path d="M343.811 65.7708C343.811 65.7708 344.479 51.3024 331.119 49.845C317.2 48.3213 314.801 62.6042 314.801 62.6042L343.811 65.7708Z" fill="#D1D1F2"/>
<path d="M493.468 453.621C500.925 464.168 513.63 470.899 526.731 469.64C527.399 479.352 536.519 487.792 546.525 487.964C540.909 483.035 537.037 476.278 535.66 469.044L536.724 469.123C549.702 467.56 561.835 458.153 566.551 446.308C571.268 434.463 567.656 419.637 557.254 411.939C549.933 406.52 540.35 404.916 531.148 404.638C519.069 404.28 508.095 405.857 499.589 414.191C486.379 427.122 486.011 443.075 493.468 453.621ZM512.717 451.647C512.717 451.647 513.344 439.855 523.405 436.702C520.678 435.019 518.851 432.078 518.851 428.699C518.851 423.466 523.214 419.226 528.599 419.226C533.983 419.226 538.346 423.466 538.346 428.699C538.346 432.051 536.546 434.993 533.847 436.675C543.662 439.789 544.48 451.647 544.48 451.647H512.717Z" fill="#D1D1F2"/>
<path d="M437.029 517.616C446.926 517.828 463.912 518.305 473.755 517.351C476.032 517.126 478.417 516.834 480.23 515.47C482.03 514.105 482.889 511.309 481.403 509.64C483.898 509.07 485.983 507.07 486.597 504.645C487.21 502.233 486.324 499.517 484.388 497.888C487.81 495.264 487.524 489.328 483.884 487.023C487.156 483.578 484.388 477.497 479.958 475.655C475.527 473.813 470.456 474.86 465.766 475.947C466.339 471.839 466.707 466.062 464.88 462.326C463.04 458.59 458.446 456.589 454.969 458.974C451.779 461.173 453.606 465.559 453.17 469.335C452.366 476.265 440.833 478.04 437.056 479.047V517.616H437.029Z" fill="white"/>
<path d="M437.029 517.616C437.016 517.63 437.016 517.404 437.002 516.954C436.988 516.464 436.988 515.801 436.975 514.953C436.961 513.138 436.934 510.554 436.907 507.242C436.866 500.485 436.825 490.813 436.757 479.034V478.822L436.961 478.769C440.805 477.802 445.018 477.02 448.767 474.768C450.566 473.641 452.284 472.038 452.693 469.879C453.17 467.745 452.611 465.427 452.693 463.029C452.734 461.836 452.979 460.511 453.865 459.504C454.738 458.511 455.965 457.901 457.274 457.689C459.945 457.239 462.645 458.643 464.253 460.697C465.903 462.83 466.353 465.519 466.53 468.103C466.68 470.713 466.462 473.35 466.107 475.973L465.671 475.589C467.198 475.245 468.861 474.86 470.552 474.609C472.583 474.291 474.669 474.171 476.713 474.436C478.731 474.715 480.79 475.377 482.344 476.715C483.884 478.027 485.002 479.776 485.452 481.697C485.956 483.592 485.506 485.778 484.13 487.235L484.061 486.732C486.052 487.991 487.047 490.269 487.115 492.416C487.197 494.576 486.338 496.801 484.593 498.126L484.607 497.636C486.747 499.451 487.592 502.406 486.856 504.91C486.12 507.427 483.952 509.349 481.485 509.918L481.648 509.441C482.33 510.223 482.575 511.27 482.453 512.224C482.33 513.178 481.935 514.065 481.348 514.794C480.135 516.291 478.281 516.914 476.591 517.245C473.142 517.815 469.884 517.895 466.803 518.014C460.654 518.199 455.297 518.12 450.894 518.054C446.49 517.974 443.028 517.868 440.669 517.789C439.51 517.749 438.611 517.709 437.956 517.683C437.316 517.643 437.029 517.616 437.029 517.616C437.029 517.616 437.37 517.603 437.97 517.59C438.611 517.59 439.497 517.59 440.642 517.603C443.041 517.63 446.49 517.669 450.866 517.709C455.27 517.722 460.627 517.762 466.748 517.524C469.802 517.378 473.087 517.272 476.441 516.702C478.063 516.371 479.794 515.748 480.844 514.436C481.88 513.164 482.303 511.124 481.158 509.826L480.83 509.455L481.321 509.349C483.557 508.832 485.561 507.043 486.215 504.751C486.87 502.485 486.093 499.756 484.143 498.126L483.843 497.875L484.157 497.636C487.292 495.264 487.21 489.607 483.666 487.302L483.325 487.09L483.598 486.798C484.797 485.513 485.206 483.618 484.743 481.869C484.334 480.107 483.284 478.464 481.853 477.258C480.435 476.026 478.527 475.404 476.591 475.139C474.641 474.887 472.637 475.006 470.633 475.311C468.97 475.563 467.334 475.934 465.807 476.278L465.303 476.397L465.371 475.907C465.726 473.31 465.93 470.713 465.794 468.156C465.63 465.639 465.167 463.055 463.667 461.121C462.195 459.213 459.714 457.954 457.355 458.352C456.197 458.524 455.079 459.107 454.356 459.942C453.606 460.776 453.375 461.942 453.334 463.068C453.238 465.361 453.811 467.692 453.293 470.024C452.816 472.409 450.934 474.132 449.067 475.284C445.181 477.603 440.887 478.371 437.084 479.299L437.288 479.034C437.22 490.746 437.179 500.366 437.138 507.083C437.111 510.422 437.084 513.032 437.07 514.86C437.057 515.735 437.043 516.411 437.043 516.914C437.043 517.365 437.029 517.616 437.029 517.616Z" fill="#23A1D8"/>
<path d="M432.749 521.287H419.784C418.625 521.287 417.685 520.372 417.685 519.246V475.536C417.685 474.41 418.625 473.496 419.784 473.496H432.749C433.907 473.496 434.848 474.41 434.848 475.536V519.246C434.848 520.372 433.907 521.287 432.749 521.287Z" fill="#28A6DD"/>
<path d="M428.645 481.948C428.645 483.485 427.364 484.731 425.782 484.731C424.201 484.731 422.92 483.485 422.92 481.948C422.92 480.411 424.201 479.166 425.782 479.166C427.364 479.166 428.645 480.411 428.645 481.948Z" fill="white"/>
<path d="M472.555 486.93C476.304 485.367 480.83 485.685 484.307 487.765Z" fill="white"/>
<path d="M484.307 487.765C484.211 487.95 481.826 486.533 478.513 486.334C475.2 486.069 472.637 487.142 472.555 486.943C472.433 486.811 475.037 485.38 478.554 485.645C482.085 485.87 484.443 487.646 484.307 487.765Z" fill="#23A1D8"/>
<path d="M476.168 498.404C478.95 497.45 482.044 497.358 484.88 498.166Z" fill="#28A6DD"/>
<path d="M475.337 509.667C477.9 508.633 480.886 508.62 483.462 509.627Z" fill="white"/>
<path d="M483.461 509.627C483.38 509.812 481.635 509.203 479.399 509.229C477.163 509.229 475.418 509.865 475.336 509.667C475.241 509.521 476.986 508.54 479.399 508.527C481.798 508.514 483.557 509.481 483.461 509.627Z" fill="#23A1D8"/>
<path d="M573.382 201.113C577.526 201.802 580.607 205.91 580.961 209.434C581.397 205.91 583.81 202.902 588.091 201.299C593.258 199.364 599.501 204.346 599.965 210.388C600.333 215.184 597.743 219.596 595.153 223.452C591.063 229.533 580.102 236.715 580.102 236.715C580.975 236.715 570.887 229.533 566.797 223.452C564.207 219.596 561.617 215.184 561.985 210.388C562.435 204.36 567.983 200.226 573.382 201.113Z" fill="#D1D1F2"/>
</svg>
