<svg width="168" height="152" viewBox="0 0 168 152" fill="none" xmlns="http://www.w3.org/2000/svg">
<g filter="url(#filter0_d_920_49)">
<rect x="6" y="2.21826" width="160" height="142.857" rx="6.09091" fill="url(#paint0_linear_920_49)"/>
</g>
<g clip-path="url(#clip0_920_49)">
<path d="M127.962 72.3721C127.232 76.3081 126.115 80.0963 123.822 83.4621C117.896 92.1545 109.33 96.8123 99.3034 99.1042C88.5043 101.572 75.4971 100.615 63.9714 94.2845C60.5442 96.2948 57.1276 98.3754 53.6224 100.294C52.8746 100.703 51.4888 100.921 50.9678 100.509C50.4575 100.108 50.383 98.7064 50.624 97.8931C51.6164 94.5274 52.7718 91.2074 53.9343 87.8945C54.2923 86.8735 54.2852 86.1237 53.5622 85.1836C50.8367 81.6419 49.0079 77.6847 48.4869 73.1994C48.455 72.9178 48.3097 72.6467 48.2175 72.3721C48.2175 70.8476 48.2175 69.3197 48.2175 67.7953C49.2383 64.7041 49.8443 61.3948 51.3577 58.5677C55.9297 50.0196 63.5709 44.9957 72.6228 42.2601C87.0086 37.9086 100.966 39.0282 113.888 47.1116C121.373 51.794 126.516 58.286 127.753 67.3165C127.774 67.4819 127.891 67.6368 127.962 67.7988C127.962 69.3197 127.962 70.8441 127.962 72.3721ZM55.2492 95.235C57.9321 93.6648 60.2429 92.3798 62.4829 90.9821C63.5709 90.3026 64.4782 90.3132 65.584 90.9575C71.9175 94.6577 78.8145 96.4778 86.1226 96.7102C97.0989 97.0587 107.214 94.5204 115.731 87.3031C126.19 78.4416 127.306 65.3414 118.304 55.4801C115.929 52.8784 112.963 50.6287 109.89 48.8754C100.686 43.6156 90.652 42.4503 80.2818 44.0592C72.0522 45.3301 64.6342 48.4987 58.7225 54.4978C53.5373 59.7577 50.8969 66.0033 52.1409 73.5022C52.8108 77.5368 54.6396 81.0539 57.3084 84.1239C58.1909 85.1379 58.361 86.0814 57.9038 87.3312C57.0036 89.7922 56.2274 92.2988 55.2492 95.235Z" fill="white"/>
</g>
<defs>
<filter id="filter0_d_920_49" x="0" y="0.218262" width="168" height="150.857" filterUnits="userSpaceOnUse" color-interpolation-filters="sRGB">
<feFlood flood-opacity="0" result="BackgroundImageFix"/>
<feColorMatrix in="SourceAlpha" type="matrix" values="0 0 0 0 0 0 0 0 0 0 0 0 0 0 0 0 0 0 127 0" result="hardAlpha"/>
<feOffset dx="-2" dy="2"/>
<feGaussianBlur stdDeviation="2"/>
<feComposite in2="hardAlpha" operator="out"/>
<feColorMatrix type="matrix" values="0 0 0 0 0 0 0 0 0 0 0 0 0 0 0 0 0 0 0.09 0"/>
<feBlend mode="normal" in2="BackgroundImageFix" result="effect1_dropShadow_920_49"/>
<feBlend mode="normal" in="SourceGraphic" in2="effect1_dropShadow_920_49" result="shape"/>
</filter>
<linearGradient id="paint0_linear_920_49" x1="86" y1="2.21826" x2="86" y2="145.075" gradientUnits="userSpaceOnUse">
<stop stop-color="#2488E4"/>
<stop offset="1" stop-color="#5C3EE1"/>
</linearGradient>
<clipPath id="clip0_920_49">
<rect width="79.7441" height="60.9808" fill="white" transform="translate(48.2175 39.7449)"/>
</clipPath>
</defs>
</svg>
