<svg width="168" height="152" viewBox="0 0 168 152" fill="none" xmlns="http://www.w3.org/2000/svg">
<g filter="url(#filter0_d_920_43)">
<rect x="6" y="2.21826" width="160" height="142.857" rx="6.09091" fill="url(#paint0_linear_920_43)"/>
</g>
<path d="M74.0391 112.227C73.4135 112.141 72.7897 112.05 72.1633 111.972C69.093 111.588 66.08 110.948 63.1426 109.968C59.981 108.914 56.9732 107.544 54.2712 105.565C52.3173 104.134 50.6057 102.473 49.4355 100.318C48.4954 98.5864 48.0419 96.7402 48.28 94.7767C48.4867 93.0713 49.2617 91.596 50.3599 90.2876C52.0453 88.2798 54.1887 86.8741 56.4884 85.6899C60.0349 83.8637 63.8185 82.7117 67.6977 81.8559C69.1442 81.537 70.6073 81.2894 72.0851 81.0053C72.1703 80.3911 72.1364 79.8959 71.53 79.4189C68.7863 77.2634 66.8098 74.4971 65.358 71.3399C63.775 67.8986 62.9532 64.2609 62.4753 60.5224C61.9983 56.7857 61.8498 53.0316 61.9949 49.2775C62.146 45.367 63.014 41.619 65.1008 38.2324C67.6282 34.1317 71.2911 31.5774 75.8879 30.2872C78.549 29.5401 81.2693 29.2759 84.0199 29.3524C87.2901 29.4436 90.476 29.9831 93.4586 31.4045C97.6236 33.3897 100.391 36.6451 101.973 40.9318C103.372 44.7207 103.734 48.6607 103.494 52.6641C103.098 59.2748 101.139 65.452 98.2352 71.359C97.8929 72.0558 97.5628 72.7656 96.8764 73.2252C95.7878 73.955 94.3638 73.9185 93.3621 73.1105C92.3256 72.2747 91.9434 70.8464 92.4812 69.6336C92.9955 68.4737 93.5828 67.346 94.0945 66.1844C95.5889 62.7918 96.6158 59.2583 97.2222 55.6007C97.6167 53.2245 97.7661 50.8362 97.5515 48.4348C97.3265 45.917 96.8391 43.4626 95.5845 41.2263C94.0624 38.5131 91.7331 36.7937 88.7731 35.9857C84.774 34.8945 80.7506 34.9501 76.7871 36.1734C72.2572 37.5713 69.6177 40.7502 68.4866 45.2767C67.9575 47.394 67.8211 49.5486 67.8775 51.7197C67.9244 53.5399 67.934 55.3635 68.0678 57.1775C68.3458 60.9299 68.9392 64.6284 70.3962 68.1314C71.6907 71.2417 73.6273 73.8533 76.4787 75.7169C77.5377 76.4094 78.0425 77.3616 78.0304 78.6213C78.0147 80.2547 78.0304 81.8889 78.0251 83.5223C78.0191 85.2242 76.8974 86.4397 75.2137 86.6265C70.2042 87.1825 65.3163 88.2312 60.6821 90.2789C58.7734 91.1225 56.941 92.0947 55.4102 93.5491C55.3581 93.5986 55.2999 93.6429 55.2504 93.6951C53.8933 95.1121 53.7968 96.2745 54.908 97.9114C55.9706 99.4761 57.4337 100.593 59.0149 101.579C62.0131 103.448 65.2972 104.608 68.7229 105.346C70.7446 105.781 72.808 106.036 74.861 106.309C76.2406 106.492 77.417 107.644 77.5221 108.969C77.6655 110.775 76.3579 111.953 75.192 112.148C75.1242 112.159 75.0608 112.198 74.9948 112.225C74.675 112.227 74.3571 112.227 74.0391 112.227Z" fill="white"/>
<path d="M127.961 85.7468C127.97 86.255 127.666 86.9553 127.099 87.5374C124.346 90.3627 121.59 93.1855 118.827 96.0021C118.626 96.2063 118.568 96.3801 118.617 96.6798C119.197 100.225 119.749 103.775 120.314 107.323C120.382 107.748 120.483 108.169 120.568 108.592C120.796 109.726 120.468 110.691 119.606 111.437C118.699 112.222 117.62 112.394 116.535 111.921C115.56 111.497 114.646 110.932 113.712 110.416C111.149 109 108.588 107.58 106.031 106.151C105.811 106.029 105.651 106.048 105.438 106.165C102.09 108.012 98.7357 109.845 95.3864 111.687C93.4777 112.738 91.2779 111.74 90.926 109.593C90.8252 108.975 90.9755 108.303 91.0789 107.668C91.6801 103.954 92.3056 100.245 92.906 96.5321C92.932 96.3705 92.8469 96.135 92.7305 96.0143C90.6054 93.8067 88.4673 91.6112 86.3335 89.4123C85.6689 88.7276 84.9912 88.056 84.3474 87.3523C83.582 86.5157 83.3718 85.5235 83.7158 84.4514C84.0607 83.3776 84.8235 82.666 85.9252 82.4731C88.0233 82.1048 90.1371 81.8215 92.244 81.5044C94.0285 81.2359 95.8139 80.9744 97.5967 80.6912C97.7322 80.6695 97.8955 80.5192 97.9581 80.3871C99.6088 76.9119 101.258 73.435 102.882 69.9476C103.306 69.0388 103.826 68.2526 104.816 67.9033C106.251 67.3977 107.82 68.0241 108.472 69.4081C110.047 72.7451 111.603 76.0918 113.147 79.4419C113.728 80.6999 113.707 80.6956 115.044 80.898C117.808 81.3176 120.57 81.7546 123.332 82.1847C124.086 82.302 124.843 82.4027 125.592 82.5452C126.996 82.8137 127.975 84.0213 127.961 85.7468ZM92.7062 87.4253C92.8026 87.5322 92.8374 87.5747 92.8764 87.6138C94.6766 89.4705 96.4759 91.3271 98.2769 93.1829C98.945 93.8709 99.2361 94.7102 99.0953 95.6407C98.7956 97.6207 98.4359 99.5903 98.104 101.565C97.9954 102.213 97.8981 102.864 97.7861 103.58C97.9589 103.497 98.0623 103.454 98.1605 103.4C100.119 102.323 102.082 101.255 104.031 100.16C105.142 99.5364 106.233 99.4825 107.355 100.114C108.763 100.906 110.18 101.681 111.593 102.463C112.28 102.842 112.968 103.221 113.682 103.615C113.689 103.515 113.702 103.471 113.696 103.43C113.3 100.965 112.904 98.4991 112.508 96.0343C112.331 94.9318 112.533 93.9544 113.355 93.129C114.874 91.6025 116.368 90.0517 117.872 88.5104C118.186 88.189 118.501 87.8675 118.865 87.4948C116.382 87.1091 113.991 86.7233 111.594 86.3723C110.438 86.2029 109.559 85.6773 109.052 84.6078C108.201 82.812 107.362 81.0109 106.518 79.2116C106.291 78.726 106.064 78.2395 105.809 77.6938C105.745 77.8224 105.72 77.8719 105.697 77.9223C104.673 80.0848 103.644 82.2446 102.628 84.4114C102.17 85.3888 101.46 86.0656 100.388 86.2628C99.2404 86.474 98.0814 86.619 96.9268 86.7928C95.5428 86.9996 94.1605 87.2072 92.7062 87.4253Z" fill="white"/>
<defs>
<filter id="filter0_d_920_43" x="0" y="0.218262" width="168" height="150.857" filterUnits="userSpaceOnUse" color-interpolation-filters="sRGB">
<feFlood flood-opacity="0" result="BackgroundImageFix"/>
<feColorMatrix in="SourceAlpha" type="matrix" values="0 0 0 0 0 0 0 0 0 0 0 0 0 0 0 0 0 0 127 0" result="hardAlpha"/>
<feOffset dx="-2" dy="2"/>
<feGaussianBlur stdDeviation="2"/>
<feComposite in2="hardAlpha" operator="out"/>
<feColorMatrix type="matrix" values="0 0 0 0 0 0 0 0 0 0 0 0 0 0 0 0 0 0 0.09 0"/>
<feBlend mode="normal" in2="BackgroundImageFix" result="effect1_dropShadow_920_43"/>
<feBlend mode="normal" in="SourceGraphic" in2="effect1_dropShadow_920_43" result="shape"/>
</filter>
<linearGradient id="paint0_linear_920_43" x1="86" y1="2.21826" x2="86" y2="145.075" gradientUnits="userSpaceOnUse">
<stop stop-color="#2488E4"/>
<stop offset="1" stop-color="#5C3EE1"/>
</linearGradient>
</defs>
</svg>
