<svg width="168" height="152" viewBox="0 0 168 152" fill="none" xmlns="http://www.w3.org/2000/svg">
<g filter="url(#filter0_d_920_24)">
<rect x="6" y="2.21826" width="160" height="142.857" rx="6.09091" fill="url(#paint0_linear_920_24)"/>
</g>
<path d="M107.559 54.8098C112.182 56.7852 113.642 60.6479 113.941 65.1779C114.24 69.6999 112.433 75.2123 107.559 77.0142C107.559 81.6243 107.559 86.2532 107.559 90.882C107.559 92.9161 106.665 93.5194 104.769 92.7613C94.6547 88.7197 84.5402 84.6728 74.4177 80.6473C73.8811 80.4338 73.2671 80.327 72.6879 80.3163C70.2266 80.2816 67.7654 80.3003 65.2054 80.3003C65.5658 82.7562 65.9102 85.14 66.2625 87.5211C67.0954 93.1403 67.9336 98.7595 68.7691 104.379C68.8973 105.233 69.0521 106.084 69.1509 106.941C69.319 108.383 68.6997 109.074 67.2582 109.08C64.6262 109.085 61.9941 109.085 59.3647 109.08C58.0807 109.077 57.5815 108.61 57.392 107.339C56.2147 99.4188 55.0322 91.5013 53.8523 83.5837C53.7108 82.6307 53.5934 81.6724 53.4092 80.7274C53.3638 80.4978 53.1289 80.1775 52.926 80.1268C48.5107 79.011 45.9828 75.9304 44.6107 71.8515C42.694 66.1549 43.2439 60.6799 46.861 55.7441C48.9245 52.9278 51.7301 51.457 55.3338 51.5024C61.1292 51.5771 66.9245 51.5317 72.7226 51.5077C73.3018 51.505 73.9131 51.3796 74.4497 51.166C84.5429 47.1538 94.6253 43.1203 104.71 39.0948C106.729 38.2886 107.567 38.8706 107.567 41.0729C107.559 45.6643 107.559 50.2584 107.559 54.8098ZM104.339 42.7573C103.971 42.8988 103.725 42.9895 103.483 43.0856C94.4171 46.7027 85.3544 50.3278 76.2783 53.9209C75.6456 54.1718 75.5602 54.5322 75.5629 55.1221C75.5789 62.3163 75.5842 69.5131 75.5575 76.7072C75.5548 77.3746 75.7417 77.6762 76.3797 77.9298C83.6646 80.8128 90.9335 83.7385 98.2104 86.6456C100.231 87.4544 102.255 88.2472 104.342 89.0748C104.339 73.5867 104.339 58.2347 104.339 42.7573ZM72.3355 54.7911C66.9806 54.7911 61.7085 54.7911 56.463 54.7911C56.463 62.2656 56.463 69.6679 56.463 77.0516C61.7912 77.0516 67.042 77.0516 72.3355 77.0516C72.3355 69.6199 72.3355 62.2389 72.3355 54.7911ZM56.6766 80.359C57.9419 88.9066 59.1912 97.342 60.4458 105.809C62.1943 105.809 63.8974 105.809 65.6886 105.809C64.4259 97.2833 63.1766 88.8452 61.9193 80.359C60.1922 80.359 58.5078 80.359 56.6766 80.359ZM53.1556 55.0073C52.7578 55.1568 52.4135 55.2529 52.1011 55.4131C50.5368 56.2086 49.4023 57.4472 48.5695 58.9635C46.869 62.0573 46.4419 65.3541 47.0986 68.8003C47.5764 71.3043 48.5588 73.576 50.5048 75.2898C51.2389 75.9358 52.1545 76.3762 53.1556 77.0169C53.1556 69.4864 53.1556 62.3083 53.1556 55.0073ZM107.585 73.4799C110.242 71.0907 110.882 68.2077 110.701 65.1112C110.511 61.8598 109.15 59.2491 107.585 58.6485C107.585 63.4935 107.585 68.3359 107.585 73.4799Z" fill="white"/>
<path d="M128.333 67.5109C125.271 67.5109 122.209 67.5136 119.147 67.5109C117.85 67.5109 117.177 66.9744 117.159 65.9466C117.14 64.8709 117.821 64.3183 119.182 64.3183C125.306 64.3156 131.427 64.3156 137.55 64.3183C138.848 64.3183 139.523 64.8548 139.542 65.8799C139.561 66.9477 138.869 67.5109 137.516 67.5109C134.457 67.5136 131.395 67.5109 128.333 67.5109Z" fill="white"/>
<path d="M134.601 38.7211C135.58 38.7531 136.138 39.1802 136.312 39.9864C136.493 40.8379 136.133 41.5026 135.324 41.839C133.52 42.5891 131.699 43.3072 129.884 44.0333C126.435 45.4107 122.999 46.8148 119.521 48.1175C119.003 48.3124 118.184 48.1709 117.708 47.8666C117.356 47.6397 117.1 46.8148 117.236 46.4011C117.404 45.8939 117.949 45.352 118.461 45.1411C123.552 43.0456 128.667 41.0114 133.779 38.9693C134.083 38.8465 134.409 38.7771 134.601 38.7211Z" fill="white"/>
<path d="M136.343 91.1276C136.351 92.7319 135.233 93.4153 133.935 92.9054C130.665 91.6187 127.403 90.3054 124.141 89C122.233 88.2366 120.321 87.4784 118.418 86.7016C117.334 86.2585 116.904 85.4283 117.249 84.5234C117.59 83.6291 118.517 83.2714 119.574 83.6905C124.75 85.7486 129.915 87.8228 135.089 89.8836C135.831 90.1799 136.33 90.6337 136.343 91.1276Z" fill="white"/>
<path d="M119.112 57.9115C117.967 57.9302 117.286 57.3989 117.169 56.5794C117.038 55.6905 117.521 54.9404 118.453 54.7429C121.042 54.1929 123.64 53.6644 126.24 53.1625C127.305 52.957 128.138 53.4749 128.327 54.3638C128.53 55.3168 127.994 56.0909 126.856 56.3338C124.203 56.8971 121.539 57.4176 119.112 57.9115Z" fill="white"/>
<path d="M126.448 78.6988C124.425 78.2957 122.217 77.8579 120.009 77.4148C119.523 77.3187 119.035 77.2226 118.552 77.1052C117.508 76.8489 116.982 76.0881 117.177 75.1511C117.364 74.2595 118.197 73.747 119.264 73.9472C121.379 74.3476 123.485 74.7934 125.594 75.2179C126.112 75.322 126.64 75.394 127.15 75.5409C128.004 75.7864 128.461 76.5152 128.341 77.3614C128.223 78.1809 127.542 78.7148 126.448 78.6988Z" fill="white"/>
<defs>
<filter id="filter0_d_920_24" x="0" y="0.218262" width="168" height="150.857" filterUnits="userSpaceOnUse" color-interpolation-filters="sRGB">
<feFlood flood-opacity="0" result="BackgroundImageFix"/>
<feColorMatrix in="SourceAlpha" type="matrix" values="0 0 0 0 0 0 0 0 0 0 0 0 0 0 0 0 0 0 127 0" result="hardAlpha"/>
<feOffset dx="-2" dy="2"/>
<feGaussianBlur stdDeviation="2"/>
<feComposite in2="hardAlpha" operator="out"/>
<feColorMatrix type="matrix" values="0 0 0 0 0 0 0 0 0 0 0 0 0 0 0 0 0 0 0.09 0"/>
<feBlend mode="normal" in2="BackgroundImageFix" result="effect1_dropShadow_920_24"/>
<feBlend mode="normal" in="SourceGraphic" in2="effect1_dropShadow_920_24" result="shape"/>
</filter>
<linearGradient id="paint0_linear_920_24" x1="86" y1="2.21826" x2="86" y2="145.075" gradientUnits="userSpaceOnUse">
<stop stop-color="#2488E4"/>
<stop offset="1" stop-color="#5C3EE1"/>
</linearGradient>
</defs>
</svg>
