<svg width="170" height="153" viewBox="0 0 170 153" fill="none" xmlns="http://www.w3.org/2000/svg">
<g filter="url(#filter0_d_920_17)">
<g filter="url(#filter1_d_920_17)">
<rect x="6" y="2" width="160" height="142.857" rx="6.09091" fill="url(#paint0_linear_920_17)"/>
</g>
<path d="M139.05 92.03C138.905 92.3678 138.769 92.7081 138.613 93.0405C137.611 95.1713 135.869 96.1657 133.574 96.297C133.336 96.3104 133.097 96.3024 132.859 96.3024C101.998 96.3024 71.1402 96.2997 40.2796 96.3077C37.8914 96.3077 35.8893 95.5948 34.7716 93.338C34.4205 92.6304 34.1766 91.7835 34.1739 91.0008C34.1417 74.0347 34.1391 57.0686 34.1578 40.1025C34.1605 37.3338 36.428 35.0422 39.194 34.8868C39.6363 34.8626 40.0812 34.8734 40.5261 34.8734C71.1133 34.8734 101.701 34.8975 132.285 34.8358C135.625 34.8305 137.967 35.8919 139.053 39.1698C139.05 56.7872 139.05 74.41 139.05 92.03ZM86.5276 91.8665C101.961 91.8665 117.393 91.8665 132.829 91.8665C134.536 91.8665 134.721 91.6843 134.724 90.0145C134.724 73.7265 134.724 57.4412 134.724 41.1532C134.724 39.4432 134.507 39.2288 132.762 39.2288C101.998 39.2288 71.234 39.2288 40.4699 39.2288C38.6741 39.2288 38.4731 39.4298 38.4731 41.2202C38.4731 57.4385 38.4731 73.6568 38.4731 89.8778C38.4731 91.7164 38.6231 91.8665 40.435 91.8665C55.7956 91.8692 71.1616 91.8665 86.5276 91.8665Z" fill="white"/>
<path d="M139.049 111.29C138.446 112.58 137.377 112.917 136.034 112.915C122.96 112.893 109.885 112.909 96.8111 112.885C95.9293 112.882 95.4737 113.043 95.1199 113.995C93.9272 117.208 90.5715 119.328 87.0844 119.27C83.6617 119.211 80.4427 116.989 79.2849 113.783C79.0302 113.081 78.7086 112.885 77.9876 112.885C64.4013 112.907 50.8151 112.904 37.2288 112.893C36.6901 112.893 36.1326 112.848 35.6153 112.706C34.6933 112.456 34.1117 111.564 34.1465 110.607C34.1813 109.647 34.8139 108.835 35.7681 108.632C36.2961 108.519 36.8482 108.479 37.3896 108.479C50.8392 108.471 64.2888 108.465 77.7383 108.489C78.588 108.492 79.0302 108.334 79.3626 107.439C80.5419 104.265 83.8654 102.081 87.2613 102.089C90.7216 102.097 93.9995 104.314 95.1869 107.549C95.4603 108.297 95.8275 108.492 96.5887 108.489C109.73 108.465 122.874 108.479 136.015 108.463C137.342 108.46 138.428 108.779 139.049 110.055C139.049 110.47 139.049 110.88 139.049 111.29ZM83.0801 110.725C83.0908 113.033 84.9268 114.874 87.2319 114.887C89.5423 114.901 91.4962 112.949 91.4667 110.66C91.4345 108.369 89.569 106.53 87.2694 106.522C84.8893 106.514 83.0694 108.342 83.0801 110.725Z" fill="white"/>
<path d="M74.1814 65.5543C74.1814 60.9818 74.176 56.4119 74.1894 51.8394C74.1921 51.3007 74.2189 50.7298 74.3985 50.2312C74.8943 48.8456 76.5132 48.481 77.8855 49.4433C80.6756 51.3998 83.447 53.3859 86.2265 55.3613C89.9762 58.0281 93.7285 60.695 97.4756 63.3646C99.5394 64.8333 99.5313 66.3128 97.4461 67.7977C91.0295 72.3649 84.6103 76.9213 78.2018 81.4965C77.32 82.1264 76.4542 82.5821 75.3821 82.0031C74.3207 81.4322 74.1787 80.4405 74.1814 79.3738C74.184 74.7664 74.1814 70.159 74.1814 65.5543ZM78.644 75.801C83.5114 72.3354 88.2313 68.9744 93.0236 65.5624C88.175 62.1156 83.4685 58.7706 78.644 55.3425C78.644 62.212 78.644 68.9073 78.644 75.801Z" fill="white"/>
</g>
<defs>
<filter id="filter0_d_920_17" x="2" y="2" width="168" height="150.857" filterUnits="userSpaceOnUse" color-interpolation-filters="sRGB">
<feFlood flood-opacity="0" result="BackgroundImageFix"/>
<feColorMatrix in="SourceAlpha" type="matrix" values="0 0 0 0 0 0 0 0 0 0 0 0 0 0 0 0 0 0 127 0" result="hardAlpha"/>
<feOffset dy="4"/>
<feGaussianBlur stdDeviation="2"/>
<feComposite in2="hardAlpha" operator="out"/>
<feColorMatrix type="matrix" values="0 0 0 0 0 0 0 0 0 0 0 0 0 0 0 0 0 0 0.25 0"/>
<feBlend mode="normal" in2="BackgroundImageFix" result="effect1_dropShadow_920_17"/>
<feBlend mode="normal" in="SourceGraphic" in2="effect1_dropShadow_920_17" result="shape"/>
</filter>
<filter id="filter1_d_920_17" x="0" y="0" width="168" height="150.857" filterUnits="userSpaceOnUse" color-interpolation-filters="sRGB">
<feFlood flood-opacity="0" result="BackgroundImageFix"/>
<feColorMatrix in="SourceAlpha" type="matrix" values="0 0 0 0 0 0 0 0 0 0 0 0 0 0 0 0 0 0 127 0" result="hardAlpha"/>
<feOffset dx="-2" dy="2"/>
<feGaussianBlur stdDeviation="2"/>
<feComposite in2="hardAlpha" operator="out"/>
<feColorMatrix type="matrix" values="0 0 0 0 0 0 0 0 0 0 0 0 0 0 0 0 0 0 0.09 0"/>
<feBlend mode="normal" in2="BackgroundImageFix" result="effect1_dropShadow_920_17"/>
<feBlend mode="normal" in="SourceGraphic" in2="effect1_dropShadow_920_17" result="shape"/>
</filter>
<linearGradient id="paint0_linear_920_17" x1="86" y1="2" x2="86" y2="144.857" gradientUnits="userSpaceOnUse">
<stop stop-color="#2488E4"/>
<stop offset="1" stop-color="#5C3EE1"/>
</linearGradient>
</defs>
</svg>
