<svg width="60" height="60" viewBox="0 0 60 60" fill="none" xmlns="http://www.w3.org/2000/svg">
<path fill-rule="evenodd" clip-rule="evenodd" d="M59.9603 17.3561C59.935 13.1136 58.3647 9.02571 55.5434 5.85723C52.722 2.68874 48.8428 0.656787 44.6317 0.14154C44.4831 0.109451 44.3382 0.062018 44.1994 0H15.7724C15.4479 0.0733886 15.1209 0.138871 14.7939 0.204382C14.0298 0.35742 13.2651 0.51061 12.5284 0.765093C5.45129 3.11393 1.32233 7.97865 0.14154 15.3592C0.103609 15.5062 0.0563336 15.6506 0 15.7915V44.2147C0.0403038 44.4131 0.0800491 44.6115 0.119764 44.8098L0.119822 44.8101C0.2271 45.3457 0.334158 45.8801 0.451402 46.4105C1.3281 50.2155 3.45525 53.6167 6.49275 56.0702C9.53024 58.5238 13.3027 59.8881 17.2069 59.945C25.7122 59.9935 34.2188 59.9935 42.7266 59.945C47.2749 59.8895 51.6213 58.0579 54.8377 54.8415C58.0541 51.6251 59.8856 47.2788 59.9412 42.7304C60.0126 34.2711 60.019 25.813 59.9603 17.3561ZM54.9872 42.2829C54.9872 49.448 49.49 54.9604 42.3402 54.9719H17.6622C10.5124 54.9719 5.03813 49.448 5.01518 42.2829V29.9457V17.6851C5.01518 10.5162 10.5124 5.00753 17.6622 4.99988H42.3402C49.49 4.99988 54.9643 10.5124 54.9872 17.6851C54.9898 25.8844 54.9847 34.0836 54.9719 42.2829H54.9872ZM30.0672 16.2436C27.3492 16.227 24.6874 17.0166 22.4182 18.5126C20.1489 20.0085 18.3742 22.1437 17.3182 24.6481C16.2622 27.1526 15.9725 29.9139 16.4856 32.583C16.9987 35.2521 18.2916 37.7091 20.2009 39.6436C22.1102 41.578 24.5501 42.9029 27.2123 43.4509C29.8744 43.9988 32.6393 43.7452 35.1574 42.7221C37.6754 41.699 39.8336 39.9522 41.3591 37.7028C42.8846 35.4533 43.7089 32.802 43.7279 30.0841C43.7462 26.4389 42.3186 22.935 39.7579 20.3406C37.1972 17.7462 33.7123 16.2729 30.0672 16.2436ZM29.9792 38.7296C28.2494 38.7289 26.5587 38.2152 25.121 37.2535C23.6832 36.2917 22.5629 34.9252 21.9018 33.3268C21.2408 31.7283 21.0686 29.9697 21.4071 28.2734C21.7455 26.5771 22.5795 25.0192 23.8034 23.7969C25.0273 22.5746 26.5863 21.7427 28.283 21.4065C29.9798 21.0702 31.7382 21.2447 33.3358 21.9079C34.9333 22.571 36.2984 23.6931 37.2582 25.1321C38.218 26.5712 38.7295 28.2625 38.728 29.9923C38.7189 32.3088 37.7939 34.5276 36.1548 36.1645C34.5157 37.8015 32.2957 38.7236 29.9792 38.7296ZM44.1719 10.613C44.7884 10.2072 45.5111 9.99263 46.2491 9.99623C46.7454 10.0012 47.2358 10.1043 47.6922 10.2995C48.1485 10.4948 48.5616 10.7783 48.9079 11.1339C49.2542 11.4894 49.5268 11.9099 49.71 12.3712C49.8931 12.8325 49.9832 13.3254 49.9751 13.8217C49.9593 14.5596 49.7258 15.2764 49.3039 15.882C48.882 16.4876 48.2906 16.9551 47.6039 17.2257C46.9173 17.4963 46.1659 17.5579 45.4443 17.4029C44.7227 17.2479 44.063 16.8831 43.548 16.3544C43.033 15.8257 42.6858 15.1566 42.5498 14.4311C42.4139 13.7057 42.4953 12.9563 42.7839 12.277C43.0725 11.5977 43.5554 11.0187 44.1719 10.613Z" fill="white"/>
</svg>
