<svg width="60" height="60" viewBox="0 0 60 60" fill="none" xmlns="http://www.w3.org/2000/svg">
<path d="M59.9906 59.9943H46.8692V59.2722C46.8692 51.2259 46.866 43.1804 46.8598 35.1356C46.8599 34.1608 46.7893 33.1873 46.6484 32.2228C46.3244 30.046 44.9719 28.8179 42.8679 28.3718C41.2197 28.0239 39.5177 28.0163 37.8664 28.3495C35.4161 28.8379 34.0894 30.3008 33.8651 32.791C33.7912 33.6129 33.7477 34.4277 33.7477 35.246C33.7399 43.2297 33.7399 51.2165 33.7477 59.2065V59.9497H20.6556V16.9046H33.7196V22.4052C33.8042 22.3163 33.8827 22.2218 33.9544 22.1222C35.4255 19.1976 37.8558 17.6396 41.0376 17.17C44.4529 16.6663 47.853 16.7156 51.2003 17.6267C55.6747 18.843 58.1966 21.9214 59.1512 26.3312C59.5374 28.1147 59.6548 29.9568 59.8932 31.7719C59.9331 32.0783 59.9648 32.3859 60 32.6924L59.9906 59.9943Z" fill="white"/>
<path d="M7.49482 0C7.72963 0.0727925 7.96445 0.151457 8.20748 0.214857C11.3434 1.03671 13.4509 4.05525 13.0951 7.22173C12.7241 10.5091 10.0191 13.0475 6.79155 13.1226C3.4384 13.2013 0.624141 10.8919 0.0887635 7.62561C-0.189575 5.95099 0.19239 4.23368 1.15431 2.83492C2.11623 1.43616 3.58314 0.464968 5.24647 0.125627C5.37324 0.0909918 5.4979 0.0490455 5.61982 0H7.49482Z" fill="white"/>
<path d="M13.0942 16.915V59.9601H0.0419922V16.915H13.0942Z" fill="white"/>
</svg>
