<svg width="17" height="19" viewBox="0 0 17 19" fill="none" xmlns="http://www.w3.org/2000/svg">
<path d="M5.50471 18.4519C5.37136 18.4336 5.23838 18.4141 5.10484 18.3974C4.45029 18.3156 3.80798 18.1791 3.18177 17.9702C2.50778 17.7455 1.86657 17.4534 1.29056 17.0315C0.874018 16.7265 0.509148 16.3725 0.259666 15.913C0.0592659 15.5439 -0.037415 15.1503 0.0133333 14.7317C0.057414 14.3681 0.222624 14.0537 0.456733 13.7747C0.816046 13.3467 1.27297 13.047 1.76322 12.7946C2.51926 12.4053 3.32587 12.1597 4.15284 11.9772C4.46122 11.9093 4.77312 11.8565 5.08817 11.7959C5.10632 11.665 5.09909 11.5594 4.96982 11.4577C4.38491 10.9982 3.96356 10.4085 3.65406 9.73541C3.31661 9.00178 3.1414 8.2263 3.03953 7.42933C2.93785 6.63273 2.90617 5.83242 2.9371 5.03211C2.96933 4.19847 3.15436 3.39946 3.59924 2.6775C4.13803 1.8033 4.91888 1.25877 5.89885 0.98373C6.46615 0.824447 7.04605 0.768142 7.63244 0.784441C8.32958 0.803888 9.00875 0.918905 9.64459 1.22191C10.5325 1.64513 11.1224 2.33912 11.4597 3.25296C11.7579 4.06067 11.8351 4.90061 11.784 5.75408C11.6995 7.16336 11.2819 8.48022 10.6629 9.73949C10.5899 9.88803 10.5195 10.0393 10.3732 10.1373C10.1411 10.2929 9.83758 10.2851 9.62403 10.1129C9.40307 9.9347 9.32158 9.63021 9.43623 9.37165C9.54587 9.1244 9.67108 8.88399 9.78017 8.63636C10.0987 7.9131 10.3177 7.15984 10.4469 6.38009C10.531 5.87354 10.5629 5.36439 10.5171 4.85246C10.4692 4.31571 10.3653 3.79248 10.0978 3.31575C9.77332 2.73733 9.27676 2.37079 8.64574 2.19854C7.7932 1.96591 6.93548 1.97777 6.09054 2.23855C5.12484 2.53656 4.56216 3.21425 4.32102 4.17921C4.20822 4.63057 4.17914 5.0899 4.19118 5.55275C4.20118 5.94077 4.20322 6.32953 4.23174 6.71626C4.29101 7.51619 4.41751 8.30464 4.72811 9.05142C5.00408 9.71448 5.41692 10.2712 6.02479 10.6685C6.25056 10.8161 6.35817 11.0191 6.35558 11.2877C6.35225 11.6359 6.35558 11.9843 6.35447 12.3325C6.35317 12.6953 6.11406 12.9544 5.75512 12.9942C4.68718 13.1128 3.64517 13.3363 2.65725 13.7729C2.25034 13.9527 1.85972 14.16 1.53338 14.47C1.52226 14.4806 1.50985 14.49 1.4993 14.5011C1.20999 14.8032 1.18944 15.051 1.42632 15.4C1.65284 15.7335 1.96474 15.9717 2.30182 16.1819C2.94099 16.5803 3.6411 16.8276 4.37139 16.9848C4.80238 17.0776 5.24227 17.1321 5.67992 17.1902C5.97404 17.2291 6.22482 17.4747 6.24723 17.7574C6.27779 18.1422 5.99904 18.3934 5.75049 18.4349C5.73604 18.4373 5.72252 18.4456 5.70845 18.4513C5.64029 18.4519 5.5725 18.4519 5.50471 18.4519Z" fill="white"/>
<path d="M16.9999 12.8068C17.0018 12.9151 16.937 13.0644 16.8162 13.1885C16.2293 13.7908 15.6416 14.3926 15.0526 14.993C15.0098 15.0366 14.9974 15.0736 15.008 15.1375C15.1315 15.8934 15.2493 16.6501 15.3697 17.4064C15.3841 17.4971 15.4056 17.5868 15.4238 17.677C15.4725 17.9187 15.4025 18.1244 15.2187 18.2835C15.0254 18.4508 14.7953 18.4874 14.564 18.3867C14.3562 18.2963 14.1613 18.1759 13.9622 18.0659C13.4159 17.764 12.8699 17.4612 12.3248 17.1567C12.2779 17.1306 12.2438 17.1346 12.1983 17.1597C11.4847 17.5532 10.7695 17.944 10.0555 18.3369C9.64864 18.5608 9.17968 18.3482 9.10467 17.8903C9.08318 17.7586 9.11522 17.6155 9.13726 17.4799C9.26543 16.6883 9.39878 15.8976 9.52677 15.106C9.53232 15.0716 9.51417 15.0214 9.48935 14.9956C9.03632 14.525 8.58051 14.057 8.12563 13.5882C7.98394 13.4422 7.83948 13.2991 7.70223 13.149C7.53906 12.9707 7.49424 12.7592 7.56759 12.5306C7.64111 12.3017 7.80373 12.15 8.03858 12.1089C8.48587 12.0304 8.93649 11.97 9.38563 11.9024C9.76606 11.8452 10.1467 11.7894 10.5267 11.729C10.5556 11.7244 10.5904 11.6924 10.6038 11.6642C10.9557 10.9233 11.3072 10.1821 11.6536 9.43868C11.744 9.24495 11.8547 9.07733 12.0659 9.00287C12.3716 8.89508 12.7061 9.02862 12.8452 9.32366C13.1808 10.0351 13.5125 10.7485 13.8419 11.4627C13.9656 11.7309 13.9611 11.7299 14.2462 11.7731C14.8355 11.8626 15.4241 11.9557 16.0131 12.0474C16.1737 12.0724 16.3352 12.0939 16.4948 12.1243C16.7942 12.1815 17.0029 12.4389 16.9999 12.8068ZM9.48417 13.1646C9.50473 13.1874 9.51213 13.1965 9.52047 13.2048C9.90423 13.6006 10.2878 13.9964 10.6718 14.392C10.8142 14.5387 10.8762 14.7176 10.8462 14.916C10.7823 15.3381 10.7056 15.758 10.6349 16.1789C10.6117 16.3171 10.591 16.4558 10.5671 16.6085C10.604 16.5909 10.626 16.5816 10.6469 16.5701C11.0644 16.3405 11.483 16.1128 11.8984 15.8795C12.1353 15.7465 12.3677 15.735 12.607 15.8696C12.9071 16.0384 13.2092 16.2036 13.5105 16.3703C13.657 16.4512 13.8037 16.532 13.9558 16.6161C13.9574 16.5946 13.96 16.5853 13.9587 16.5766C13.8745 16.051 13.79 15.5253 13.7055 14.9999C13.6678 14.7648 13.7109 14.5565 13.8861 14.3805C14.2099 14.0551 14.5284 13.7245 14.849 13.3959C14.9161 13.3274 14.9831 13.2589 15.0607 13.1794C14.5314 13.0972 14.0217 13.015 13.5107 12.9401C13.2642 12.904 13.0769 12.792 12.9688 12.564C12.7874 12.1811 12.6085 11.7972 12.4287 11.4136C12.3802 11.3101 12.3318 11.2064 12.2774 11.09C12.2638 11.1175 12.2585 11.128 12.2535 11.1388C12.0353 11.5997 11.8158 12.0602 11.5993 12.5221C11.5017 12.7305 11.3504 12.8748 11.1218 12.9168C10.8772 12.9618 10.6301 12.9927 10.3839 13.0298C10.0889 13.0739 9.79421 13.1181 9.48417 13.1646Z" fill="white"/>
</svg>
