<svg width="21" height="21" viewBox="0 0 21 21" fill="none" xmlns="http://www.w3.org/2000/svg">
<path d="M11.6187 2.44918C10.2719 6.55117 13.5859 10.3463 17.7675 9.59618C17.7779 9.7212 17.7968 9.84432 17.7968 9.9665C17.7959 12.7293 17.8091 15.492 17.775 18.2538C17.7693 18.6886 17.6169 19.1602 17.4047 19.5448C17.0723 20.1471 16.4983 20.4436 15.7908 20.4436C11.2749 20.4426 6.75904 20.4474 2.24315 20.4407C0.980634 20.4388 0.0098316 19.4851 0.00699023 18.2264C-0.00342813 13.648 -0.000586762 9.07052 0.00509598 4.49213C0.00699023 3.42945 0.722069 2.62914 1.77338 2.48328C2.00637 2.45108 2.24599 2.44918 2.48182 2.44918C5.3393 2.44729 8.19772 2.44823 11.0552 2.44823C11.2285 2.44918 11.4009 2.44918 11.6187 2.44918ZM2.17306 17.5331C2.44678 17.5643 2.62295 17.5984 2.80006 17.6003C3.11545 17.6041 3.43084 17.5804 3.74623 17.5804C7.51768 17.5861 11.2891 17.5965 15.0606 17.6003C15.7596 17.6013 15.8628 17.426 15.5275 16.8237C14.318 14.6453 13.1057 12.4697 11.8896 10.2952C11.5344 9.66058 11.3384 9.65585 10.9529 10.2677C10.3401 11.2413 9.74153 12.2254 9.11927 13.1934C8.51406 14.1338 8.0386 14.1803 7.23165 13.4112C6.38871 12.6071 5.73519 12.662 5.04664 13.6101C4.2861 14.6557 3.53692 15.7108 2.77922 16.7583C2.60684 16.9951 2.41837 17.2196 2.17306 17.5331ZM5.30047 5.10302C4.00859 5.11344 2.96012 6.17801 2.96959 7.46988C2.98001 8.77123 4.02469 9.82443 5.31278 9.83106C6.61413 9.83769 7.68153 8.7504 7.66733 7.43484C7.65312 6.13823 6.59139 5.0926 5.30047 5.10302Z" fill="white"/>
<path d="M16.6886 0.000167689C14.2668 -0.020669 12.311 1.90294 12.2949 4.32C12.2797 6.74464 14.2043 8.69382 16.6223 8.70234C19.0403 8.71086 20.9885 6.77968 20.9999 4.36167C21.0113 1.97871 19.0763 0.0210044 16.6886 0.000167689ZM18.4209 4.57288C18.0203 4.12584 17.649 3.71195 17.1849 3.19482V7.18694C17.1849 7.20304 17.182 7.21725 17.1792 7.2324C17.1792 7.24188 17.1792 7.25135 17.1792 7.26177C17.1745 7.26366 17.1707 7.26555 17.1669 7.26839C17.1366 7.3328 17.0722 7.37731 16.9964 7.37731H16.3277C16.2236 7.37731 16.1383 7.29207 16.1383 7.18789V3.12662C15.6174 3.63333 15.1808 4.05765 14.7072 4.51795C14.5083 4.28496 14.3303 4.07659 14.1702 3.88811C15.0217 3.03665 15.8409 2.21644 16.645 1.41138C17.4482 2.21075 18.2731 3.03096 19.1398 3.89474C18.9238 4.09742 18.7221 4.28685 18.4209 4.57288Z" fill="white"/>
</svg>
