<svg width="21" height="16" viewBox="0 0 21 16" fill="none" xmlns="http://www.w3.org/2000/svg">
<path d="M13.6505 4.21156C14.6361 4.63268 14.9474 5.45613 15.0112 6.42185C15.0749 7.38587 14.6896 8.56101 13.6505 8.94514C13.6505 9.92793 13.6505 10.9147 13.6505 11.9015C13.6505 12.3351 13.4599 12.4637 13.0558 12.3021C10.8996 11.4405 8.74335 10.5778 6.58541 9.71965C6.47103 9.67412 6.34014 9.65136 6.21665 9.64909C5.69196 9.64169 5.16727 9.64567 4.62153 9.64567C4.69835 10.1692 4.77177 10.6774 4.84688 11.185C5.02444 12.3829 5.20312 13.5808 5.38125 14.7787C5.40856 14.9608 5.44157 15.1424 5.46262 15.3251C5.49847 15.6324 5.36645 15.7797 5.05915 15.7809C4.49804 15.782 3.93693 15.782 3.37639 15.7809C3.10266 15.7803 2.99625 15.6807 2.95584 15.4098C2.70488 13.7214 2.45278 12.0335 2.20125 10.3456C2.17109 10.1425 2.14605 9.93818 2.10678 9.73672C2.09711 9.68778 2.04703 9.61949 2.00378 9.60868C1.06253 9.37081 0.52361 8.71409 0.231105 7.84454C-0.177492 6.63014 -0.060262 5.46296 0.710836 4.41074C1.15073 3.81036 1.74883 3.4968 2.51708 3.50647C3.75255 3.52241 4.98801 3.51273 6.22405 3.50761C6.34754 3.50704 6.47786 3.4803 6.59224 3.43477C8.74392 2.57945 10.8933 1.71958 13.0433 0.861408C13.4735 0.689547 13.6522 0.813606 13.6522 1.28309C13.6505 2.26191 13.6505 3.24129 13.6505 4.21156ZM12.9642 1.64218C12.8857 1.67234 12.8333 1.69169 12.7815 1.71218C10.8489 2.48328 8.91692 3.25608 6.98206 4.02206C6.84719 4.07555 6.82898 4.15238 6.82955 4.27814C6.83296 5.8118 6.8341 7.34603 6.82841 8.87969C6.82784 9.02196 6.86767 9.08627 7.00368 9.14033C8.55669 9.75493 10.1063 10.3786 11.6576 10.9984C12.0884 11.1708 12.5197 11.3398 12.9648 11.5162C12.9642 8.21444 12.9642 4.94169 12.9642 1.64218ZM6.14153 4.20758C4.99997 4.20758 3.87604 4.20758 2.7578 4.20758C2.7578 5.80099 2.7578 7.37904 2.7578 8.9531C3.89368 8.9531 5.01305 8.9531 6.14153 8.9531C6.14153 7.3688 6.14153 5.7953 6.14153 4.20758ZM2.80333 9.65819C3.07307 11.4804 3.3394 13.2787 3.60687 15.0838C3.97961 15.0838 4.34268 15.0838 4.72453 15.0838C4.45536 13.2661 4.18903 11.4673 3.921 9.65819C3.5528 9.65819 3.19372 9.65819 2.80333 9.65819ZM2.05272 4.25367C1.96793 4.28554 1.89451 4.30603 1.82793 4.34017C1.49445 4.50976 1.2526 4.77381 1.07504 5.09704C0.712543 5.7566 0.621491 6.45941 0.761484 7.19409C0.863349 7.72788 1.07277 8.21217 1.48763 8.57751C1.64412 8.71523 1.83931 8.80913 2.05272 8.94571C2.05272 7.34034 2.05272 5.8101 2.05272 4.25367ZM13.6562 8.19168C14.2224 7.68236 14.359 7.06776 14.3203 6.40763C14.2799 5.71449 13.9897 5.15793 13.6562 5.02989C13.6562 6.06277 13.6562 7.09507 13.6562 8.19168Z" fill="white"/>
<path d="M18.0791 6.9192C17.4264 6.9192 16.7737 6.91977 16.1209 6.9192C15.8444 6.9192 15.701 6.80482 15.697 6.58572C15.693 6.35638 15.8381 6.23859 16.1283 6.23859C17.4338 6.23802 18.7387 6.23802 20.0442 6.23859C20.3207 6.23859 20.4647 6.35297 20.4687 6.5715C20.4727 6.79913 20.3253 6.9192 20.0368 6.9192C19.3846 6.91977 18.7319 6.9192 18.0791 6.9192Z" fill="white"/>
<path d="M19.4153 0.781738C19.6242 0.788567 19.7431 0.879619 19.7801 1.05148C19.8188 1.23302 19.742 1.37472 19.5695 1.44642C19.1849 1.60633 18.7967 1.75941 18.4098 1.9142C17.6745 2.20784 16.9421 2.50718 16.2006 2.78489C16.0902 2.82643 15.9155 2.79627 15.8142 2.73139C15.7391 2.68302 15.6845 2.50718 15.7135 2.41897C15.7493 2.31085 15.8654 2.19532 15.9747 2.15037C17.0599 1.70364 18.1503 1.27001 19.2401 0.834662C19.3049 0.808485 19.3744 0.793689 19.4153 0.781738Z" fill="white"/>
<path d="M19.7868 11.9539C19.7885 12.2959 19.5501 12.4415 19.2735 12.3329C18.5764 12.0586 17.881 11.7786 17.1855 11.5003C16.7787 11.3375 16.3712 11.1759 15.9654 11.0103C15.7344 10.9159 15.6428 10.7389 15.7162 10.546C15.789 10.3553 15.9865 10.2791 16.2119 10.3684C17.3153 10.8072 18.4165 11.2493 19.5193 11.6887C19.6775 11.7518 19.7839 11.8486 19.7868 11.9539Z" fill="white"/>
<path d="M16.1135 4.87278C15.8694 4.87677 15.7242 4.76352 15.6992 4.58881C15.6713 4.39931 15.7743 4.2394 15.9729 4.19729C16.5249 4.08006 17.0786 3.96738 17.6329 3.8604C17.86 3.81658 18.0375 3.92698 18.0779 4.11648C18.1212 4.31964 18.0068 4.48467 17.7644 4.53646C17.1987 4.65653 16.6308 4.7675 16.1135 4.87278Z" fill="white"/>
<path d="M17.6773 9.30426C17.246 9.21833 16.7753 9.125 16.3047 9.03053C16.2011 9.01005 16.097 8.98956 15.994 8.96452C15.7715 8.90989 15.6594 8.7477 15.7009 8.54796C15.7408 8.35789 15.9183 8.24862 16.1459 8.2913C16.5966 8.37667 17.0456 8.4717 17.4952 8.56218C17.6056 8.58438 17.7183 8.59974 17.827 8.63104C18.0091 8.6834 18.1064 8.83876 18.0808 9.01915C18.0558 9.19386 17.9106 9.30767 17.6773 9.30426Z" fill="white"/>
</svg>
