<svg width="17" height="23" viewBox="0 0 17 23" fill="none" xmlns="http://www.w3.org/2000/svg">
<path d="M13.9947 0.782298C14.0043 0.791816 14.0127 0.806373 14.0239 0.810292C15.0042 1.10759 15.4426 1.69491 15.4432 2.7139C15.4437 3.95013 15.4432 5.18635 15.4432 6.42314C15.4432 6.50544 15.4432 6.58718 15.4432 6.67172C15.5714 6.69188 15.6811 6.7042 15.7886 6.72771C16.1856 6.81394 16.4717 7.04629 16.624 7.41917C17.1228 8.63804 17.1262 9.86363 16.629 11.0831C16.4549 11.5108 16.1212 11.7588 15.6576 11.8064C15.4952 11.8232 15.4376 11.8775 15.4381 12.05C15.4387 12.4749 15.4656 12.91 15.3866 13.3232C15.1963 14.3203 14.3626 14.972 13.3358 14.9849C12.875 14.9905 12.4136 14.986 11.9523 14.986C11.884 14.986 11.8157 14.986 11.7351 14.986C11.7351 15.421 11.7351 15.8365 11.7351 16.2693C11.7983 16.2737 11.8588 16.2799 11.9192 16.2816C12.5217 16.3012 12.9069 16.6797 12.9175 17.2888C12.9287 17.917 12.9226 18.5463 12.9198 19.1745C12.9175 19.712 12.9315 20.2512 12.9007 20.787C12.8526 21.6313 12.1051 22.26 11.2099 22.2421C10.4109 22.2264 9.68979 21.5327 9.67747 20.7288C9.66012 19.5765 9.66516 18.4237 9.6702 17.2715C9.67244 16.6931 10.0649 16.3029 10.6394 16.2821C10.7009 16.2799 10.7631 16.2816 10.8622 16.2816C10.8622 16.0604 10.8622 15.855 10.8622 15.6489C10.8622 15.4395 10.8622 15.2301 10.8622 14.9849C10.7653 14.9849 10.678 14.9849 10.5912 14.9849C7.78282 14.9849 4.97444 14.986 2.16606 14.9843C1.1118 14.9838 0.292687 14.3528 0.0614549 13.3567C0.0144246 13.1552 0.00322414 12.9419 0.00266426 12.7336C-0.00069505 9.50642 -0.000137352 6.27925 0.000422532 3.05263C0.000422532 1.84664 0.553593 1.12551 1.71927 0.808053C1.73103 0.804694 1.73998 0.790696 1.75062 0.781738C5.83386 0.782298 9.91431 0.782298 13.9947 0.782298ZM0.873848 4.63598C0.980226 4.63598 1.06309 4.63598 1.14595 4.63598C4.05231 4.63598 6.95867 4.63542 9.86448 4.63654C10.1478 4.63654 10.3404 4.80955 10.3409 5.0531C10.3415 5.29497 10.1439 5.47133 9.86672 5.47581C9.81073 5.47693 9.75473 5.47581 9.6993 5.47581C6.84165 5.47581 3.98456 5.47581 1.12691 5.47581C1.04517 5.47581 0.96343 5.47581 0.873848 5.47581C0.869369 5.54636 0.864328 5.59395 0.864328 5.64154C0.863768 8.05856 0.863769 10.475 0.865449 12.892C0.865449 12.9956 0.873286 13.1026 0.89904 13.2022C1.05413 13.8013 1.51099 14.1266 2.19685 14.1266C5.00523 14.1277 7.81362 14.1271 10.6226 14.1271C10.697 14.1271 10.7715 14.1271 10.8426 14.1271C10.8784 13.8315 10.8062 13.6546 10.6058 13.5818C10.4977 13.5426 10.374 13.5326 10.257 13.5326C8.5801 13.5286 6.90381 13.5359 5.22695 13.5242C4.49182 13.5191 3.84515 12.9945 3.77629 12.2695C3.7063 11.536 3.70238 10.7891 3.75277 10.054C3.79868 9.38157 4.2897 8.91742 4.94868 8.80992C5.15864 8.77577 5.37868 8.80433 5.59535 8.80433C5.64014 8.57085 5.67094 8.36482 5.72077 8.16382C5.77116 7.9617 5.83163 7.7607 5.90441 7.5653C6.12557 6.96846 6.52812 6.69244 7.16191 6.69244C9.5515 6.69244 11.9405 6.69244 14.3301 6.69244C14.4113 6.69244 14.4925 6.69244 14.5709 6.69244C14.5709 6.27197 14.5709 5.87893 14.5709 5.47581C14.1286 5.47581 13.703 5.48029 13.2775 5.47413C12.9836 5.46965 12.7988 5.22946 12.8627 4.9512C12.9074 4.75692 13.0659 4.63878 13.2977 4.6371C13.7215 4.6343 14.1454 4.63654 14.5821 4.63654C14.5821 3.8723 14.5821 3.13325 14.5815 2.39477C14.5815 2.36789 14.5703 2.34046 14.563 2.31358C14.4432 1.86847 14.0894 1.62045 13.5676 1.62045C9.77377 1.61989 5.98055 1.62045 2.18677 1.62045C2.13807 1.62045 2.0888 1.61989 2.04009 1.62269C1.44717 1.65908 0.918635 2.08795 0.883922 2.64391C0.842491 3.29674 0.873848 3.95404 0.873848 4.63598ZM8.53027 7.53059C8.56051 7.9617 8.60754 8.37489 8.61425 8.78865C8.62657 9.55625 8.61425 10.325 8.61481 11.0926C8.61481 11.382 8.7615 11.5584 8.98545 11.5506C9.20269 11.5427 9.34098 11.3675 9.34266 11.0959C9.3449 10.7331 9.33146 10.3692 9.34994 10.007C9.38297 9.34405 9.69539 8.84576 10.309 8.57925C10.912 8.31778 11.4865 8.41297 11.9909 8.83512C12.3912 9.16993 12.5542 9.62008 12.5558 10.1341C12.5575 10.7208 12.5575 11.307 12.5564 11.8938C12.5558 12.0964 12.6331 12.2471 12.8341 12.312C13.1174 12.4033 13.3654 12.2028 13.3671 11.877C13.3705 11.2275 13.3649 10.578 13.371 9.92913C13.3722 9.78468 13.389 9.63519 13.4287 9.49634C13.5961 8.91294 14.1202 8.50815 14.7282 8.49471C15.166 8.48519 15.6039 8.49303 16.0814 8.49303C16.0198 8.28027 15.9751 8.09943 15.9151 7.92419C15.8037 7.59889 15.7041 7.53171 15.3625 7.53171C13.5815 7.53115 11.8011 7.53171 10.0201 7.53171C9.50951 7.53059 9.00002 7.53059 8.53027 7.53059ZM11.7468 14.1221C12.3196 14.1221 12.8851 14.135 13.4489 14.1182C13.983 14.1025 14.4539 13.7442 14.5339 13.214C14.6011 12.7677 14.5479 12.303 14.5479 11.8456C14.4488 11.8456 14.3402 11.8456 14.2338 11.8456C14.0608 12.7594 13.6487 13.1893 12.9545 13.1849C12.6589 13.1832 12.3946 13.0852 12.1645 12.8982C11.8325 12.6289 11.7059 12.2639 11.6858 11.8316C11.1785 11.8316 10.6847 11.8316 10.1903 11.8316C10.1483 11.8316 10.0996 11.8187 10.066 11.8361C10.0084 11.8663 9.95237 11.9078 9.91038 11.957C9.47535 12.4688 8.67528 12.5712 8.2145 12.1026C7.96647 11.8501 7.72123 11.8143 7.41946 11.8299C7.32875 11.835 7.23805 11.8322 7.14735 11.8305C6.52868 11.8176 6.10821 11.5388 5.91001 10.9543C5.76612 10.5299 5.67262 10.0881 5.55056 9.63071C5.49289 9.63071 5.40331 9.63015 5.31373 9.63071C4.79192 9.63295 4.5814 9.84459 4.58028 10.3714C4.57916 10.8742 4.57804 11.377 4.58084 11.8798C4.58364 12.4245 4.84847 12.6866 5.39268 12.6866C7.06841 12.6871 8.7447 12.6854 10.4204 12.6877C11.005 12.6888 11.5083 13.0678 11.6634 13.6255C11.7059 13.7795 11.7177 13.9407 11.7468 14.1221ZM12.0704 18.9993C12.0704 18.4478 12.0665 17.8963 12.0727 17.3442C12.0743 17.1802 12.0133 17.1214 11.8509 17.1248C11.4881 17.1326 11.1242 17.1354 10.7614 17.1237C10.5649 17.1175 10.5095 17.1936 10.5106 17.3812C10.5173 18.4495 10.5123 19.5177 10.5145 20.586C10.5156 21.0456 10.8577 21.4017 11.2916 21.404C11.7278 21.4056 12.0671 21.0535 12.0699 20.5905C12.0721 20.0608 12.0704 19.53 12.0704 18.9993ZM7.74923 10.9722C7.74923 9.998 7.75651 9.05011 7.74475 8.10279C7.74139 7.83796 7.50456 7.61849 7.21902 7.55074C6.99283 7.49699 6.81422 7.5765 6.72744 7.79429C6.33888 8.77017 6.34168 9.74885 6.72688 10.7253C6.78511 10.8725 6.89149 10.9683 7.05721 10.9711C7.27949 10.9756 7.50232 10.9722 7.74923 10.9722ZM14.212 10.9711C14.6756 10.9711 15.1145 10.9806 15.5523 10.9632C15.6458 10.9593 15.7791 10.8776 15.8188 10.7958C16.0383 10.3412 16.1397 9.85635 16.1369 9.3323C15.6811 9.3323 15.2494 9.33006 14.8178 9.33286C14.4706 9.33566 14.2327 9.54673 14.2153 9.8961C14.1985 10.2432 14.212 10.592 14.212 10.9711ZM11.6886 10.9739C11.6886 10.6049 11.7087 10.2567 11.683 9.91178C11.6583 9.58312 11.3297 9.3099 10.9938 9.29031C10.6455 9.27015 10.2799 9.48962 10.2396 9.8194C10.1937 10.194 10.229 10.578 10.229 10.9644C10.253 10.9666 10.2872 10.9733 10.3213 10.9733C10.7676 10.9744 11.2132 10.9739 11.6886 10.9739Z" fill="white"/>
<path d="M1.41699 3.12201C1.41811 2.42775 1.97408 1.87346 2.66777 1.87402C3.35475 1.87458 3.9236 2.43839 3.92695 3.12369C3.93031 3.81402 3.34972 4.39015 2.65546 4.38511C1.9668 4.37951 1.41587 3.81794 1.41699 3.12201ZM3.06641 3.11977C3.06305 2.89693 2.88781 2.72001 2.6689 2.71889C2.4511 2.71777 2.25178 2.91933 2.25682 3.13544C2.26186 3.34708 2.45166 3.53296 2.66386 3.53464C2.89341 3.53688 3.06977 3.35436 3.06641 3.11977Z" fill="white"/>
<path d="M9.4362 3.12544C9.43788 3.8169 8.88079 4.38182 8.1927 4.38462C7.49956 4.38798 6.91784 3.80682 6.92624 3.11984C6.93464 2.43118 7.49955 1.87298 8.18765 1.87354C8.87911 1.87466 9.43396 2.43062 9.4362 3.12544ZM7.7851 3.13496C7.7879 3.35779 7.96202 3.53359 8.18205 3.53527C8.40601 3.53751 8.59245 3.34715 8.58909 3.1204C8.58573 2.90372 8.40321 2.7212 8.18877 2.7184C7.96314 2.7156 7.78174 2.90316 7.7851 3.13496Z" fill="white"/>
<path d="M4.1747 3.12151C4.17862 2.41829 4.74131 1.86737 5.44788 1.87408C6.12086 1.88024 6.68074 2.44629 6.68466 3.12431C6.68914 3.81352 6.10799 4.38965 5.41373 4.38517C4.72731 4.38013 4.17078 3.8124 4.1747 3.12151ZM5.82524 3.13606C5.8286 2.90147 5.65056 2.71671 5.42324 2.71839C5.20993 2.72007 5.02517 2.90371 5.02125 3.11927C5.01677 3.3449 5.20433 3.53694 5.42717 3.53526C5.64832 3.53358 5.82188 3.35946 5.82524 3.13606Z" fill="white"/>
<path d="M11.5992 4.63823C11.8338 4.64159 12.027 4.83867 12.0186 5.06654C12.0102 5.29609 11.8075 5.48366 11.5757 5.47526C11.349 5.46742 11.172 5.2821 11.1726 5.05366C11.1732 4.81403 11.3574 4.63487 11.5992 4.63823Z" fill="white"/>
</svg>
