<svg width="23" height="19" viewBox="0 0 23 19" fill="none" xmlns="http://www.w3.org/2000/svg">
<path d="M22.3639 12.9745C22.333 13.0465 22.3039 13.1191 22.2707 13.1899C22.057 13.6442 21.6856 13.8562 21.1965 13.8842C21.1457 13.887 21.0948 13.8853 21.044 13.8853C14.465 13.8853 7.8867 13.8847 1.30778 13.8864C0.79868 13.8864 0.371854 13.7345 0.133586 13.2533C0.0587351 13.1025 0.00674022 12.9219 0.00616883 12.7551C-0.000687777 9.13824 -0.00125902 5.52137 0.00274067 1.90451C0.00331205 1.31427 0.486702 0.825739 1.07637 0.792599C1.17065 0.787457 1.2655 0.789741 1.36035 0.789741C7.88099 0.789741 14.4016 0.794884 20.9217 0.781743C21.6336 0.7806 22.133 1.00687 22.3644 1.70567C22.3639 5.46138 22.3639 9.21823 22.3639 12.9745ZM11.167 12.9397C14.457 12.9397 17.7471 12.9397 21.0377 12.9397C21.4016 12.9397 21.4411 12.9008 21.4416 12.5448C21.4416 9.07253 21.4416 5.6008 21.4416 2.1285C21.4416 1.76395 21.3954 1.71824 21.0234 1.71824C14.465 1.71824 7.9067 1.71824 1.34835 1.71824C0.965522 1.71824 0.922668 1.7611 0.922668 2.14278C0.922668 5.60023 0.922668 9.05767 0.922668 12.5157C0.922668 12.9077 0.954666 12.9397 1.34092 12.9397C4.61552 12.9402 7.89127 12.9397 11.167 12.9397Z" fill="white"/>
<path d="M22.3637 17.0805C22.2352 17.3553 22.0072 17.4273 21.7209 17.4267C18.9337 17.4222 16.1465 17.4256 13.3593 17.4204C13.1713 17.4199 13.0742 17.4541 12.9987 17.657C12.7445 18.3421 12.0291 18.794 11.2857 18.7815C10.5561 18.7689 9.86983 18.2952 9.623 17.6119C9.56871 17.4621 9.50015 17.4204 9.34644 17.4204C6.4501 17.425 3.55375 17.4244 0.657408 17.4222C0.54256 17.4222 0.423711 17.4124 0.313434 17.3822C0.116877 17.329 -0.00711177 17.1387 0.000316226 16.9348C0.00774422 16.7302 0.14259 16.5571 0.346003 16.5137C0.458566 16.4897 0.57627 16.4811 0.69169 16.4811C3.5589 16.4794 6.4261 16.4782 9.29331 16.4834C9.47443 16.4839 9.56871 16.4502 9.63956 16.2594C9.89097 15.5829 10.5995 15.1172 11.3234 15.1189C12.0611 15.1206 12.7599 15.5931 13.013 16.2828C13.0713 16.4422 13.1496 16.4839 13.3119 16.4834C16.1133 16.4782 18.9154 16.4811 21.7169 16.4777C21.9997 16.4771 22.2312 16.5451 22.3637 16.8171C22.3637 16.9056 22.3637 16.993 22.3637 17.0805ZM10.4321 16.9599C10.4344 17.4519 10.8258 17.8444 11.3172 17.8473C11.8097 17.8501 12.2262 17.4341 12.2199 16.9462C12.2131 16.4577 11.8154 16.0657 11.3251 16.064C10.8178 16.0623 10.4298 16.4519 10.4321 16.9599Z" fill="white"/>
<path d="M8.53502 7.33037C8.53502 6.35559 8.53387 5.38138 8.53673 4.4066C8.5373 4.29175 8.54302 4.17004 8.5813 4.06377C8.687 3.76836 9.03212 3.69065 9.32467 3.89578C9.91948 4.31289 10.5103 4.73629 11.1028 5.1574C11.9022 5.72592 12.7021 6.29445 13.5009 6.86355C13.9409 7.17667 13.9392 7.49207 13.4946 7.80862C12.1267 8.78226 10.7583 9.75361 9.39209 10.729C9.20411 10.8632 9.01955 10.9604 8.791 10.837C8.56473 10.7152 8.53445 10.5038 8.53502 10.2764C8.53559 9.29422 8.53502 8.31201 8.53502 7.33037ZM9.48637 9.51477C10.524 8.77597 11.5302 8.05946 12.5518 7.33208C11.5182 6.59728 10.5149 5.8842 9.48637 5.1534C9.48637 6.61785 9.48637 8.04517 9.48637 9.51477Z" fill="white"/>
</svg>
